<?xml version="1.0" standalone="no"?>
<!DOCTYPE svg PUBLIC "-//W3C//DTD SVG 1.1//EN" "http://www.w3.org/Graphics/SVG/1.1/DTD/svg11.dtd" >
<svg>
<metadata>
Created by FontForge 20110222 at Mon Mar  7 03:38:32 2011
 By www-data
1997-98 by Dubina Nikolay D-Studio 'Moscow'  and Ray Larabie
</metadata>
<defs>
<font id="DSArmyCyr" horiz-adv-x="484" >
  <font-face 
    font-family="DS Army Cyr"
    font-weight="400"
    font-stretch="normal"
    units-per-em="1000"
    panose-1="2 11 7 6 2 2 7 5 2 4"
    ascent="800"
    descent="-200"
    x-height="594"
    cap-height="594"
    bbox="30 -191 943 710"
    underline-thickness="20"
    underline-position="-123"
    unicode-range="U+0020-2026"
  />
    <missing-glyph />
    <glyph glyph-name="space" unicode=" " horiz-adv-x="500" 
 />
    <glyph glyph-name="exclam" unicode="!" horiz-adv-x="204" 
d="M174 595v-392h-144v392h144zM174 91v-91h-144v91h144z" />
    <glyph glyph-name="quotedbl" unicode="&#x22;" horiz-adv-x="414" 
d="M384 633v-120q0 -26 -9 -32.5t-37 -6.5h-62v39h39v30h-75v90h144zM174 633v-120q0 -26 -9 -32.5t-37 -6.5h-62v39h39v30h-75v90h144z" />
    <glyph glyph-name="numbersign" unicode="#" horiz-adv-x="764" 
d="M734 229v-55h-140v-88h-144v88h-47v55h47v238h-47v55h47v88h144v-88h140v-55h-140v-238h140zM314 522h41v-55h-41v-238h41v-55h-41v-88h-144v88h-140v55h140v238h-140v55h140v88h144v-88z" />
    <glyph glyph-name="dollar" unicode="$" 
d="M314 710v-84h-117v84h117zM454 588v-61h-280v-201h38v-60h-55q-48 0 -87.5 13.5t-39.5 45.5v203q0 60 167 60h257zM454 267v-203q0 -64 -167 -64h-257v65h280v201h-42v60h59q74 0 92 -5q35 -11 35 -54zM287 -43v-75h-117v75h117z" />
    <glyph glyph-name="percent" unicode="%" horiz-adv-x="973" 
d="M943 193v-153q0 -40 -58 -40h-131v60h45v118h-45v60h131q31 0 44.5 -8t13.5 -37zM463 549v-153q0 -40 -58 -40h-131v60h45v118h-45v60h131q31 0 44.5 -8.5t13.5 -36.5zM694 594h155l-570 -594h-155zM699 238v-60h-46v-118h46v-60h-132q-58 0 -58 40v153q0 28 13.5 36.5
t44.5 8.5h132zM219 594v-60h-45v-118h45v-60h-132q-57 0 -57 40v153q0 45 57 45h132z" />
    <glyph glyph-name="ampersand" unicode="&#x26;" horiz-adv-x="540" 
d="M317 594v-60h-61v60h61zM454 416v-60h-198v60h198zM510 60v-60h-254v60h54v178h144v-178h56zM212 60v-60h-56q-21 0 -43 3.5t-40.5 11t-30.5 18.5t-12 27v474q0 60 126 60h56v-60h-38v-118h38v-60h-38v-296h38z" />
    <glyph glyph-name="quoteright" unicode="'" horiz-adv-x="204" 
d="M174 633v-120q0 -26 -9 -32.5t-37 -6.5h-62v39h39v30h-75v90h144z" />
    <glyph glyph-name="parenleft" unicode="(" horiz-adv-x="344" 
d="M314 60v-60h-158q-62 0 -84 7q-42 12 -42 53v474q0 19 10.5 30.5t28 18t40 9t47.5 2.5h158v-60h-140v-474h140z" />
    <glyph glyph-name="parenright" unicode=")" horiz-adv-x="344" 
d="M314 534v-474q0 -16 -14.5 -27t-35 -18.5t-42 -11t-35.5 -3.5h-157v60h140v474h-140v60h157q69 0 87 -5q40 -12 40 -55z" />
    <glyph glyph-name="asterisk" unicode="*" horiz-adv-x="249" 
d="M149 428l70 15l-46 -67l46 -66l-70 15l-25 -81l-24 81l-70 -15l45 66l-45 67l70 -15l24 81z" />
    <glyph glyph-name="plus" unicode="+" 
d="M454 325v-54h-140v-100h-144v100h-140v54h140v100h144v-100h140z" />
    <glyph glyph-name="comma" unicode="," horiz-adv-x="204" 
d="M174 91v-121q0 -26 -9 -32t-37 -6h-62v38h39v30h-75v91h144z" />
    <glyph glyph-name="hyphen" unicode="-" horiz-adv-x="518" 
d="M488 358v-66h-458v66h458z" />
    <glyph glyph-name="period" unicode="." horiz-adv-x="164" 
d="M134 92v-92h-104v92h104z" />
    <glyph glyph-name="slash" unicode="/" horiz-adv-x="747" 
d="M564 594h153l-533 -594h-154z" />
    <glyph glyph-name="zero" unicode="0" 
d="M454 534v-474q0 -20 -10.5 -32t-28 -18t-40.5 -8t-48 -2h-64v60h47v474h-47v60h64q66 0 90 -8q37 -13 37 -52zM221 60v-60h-65q-126 0 -126 60v474q0 21 9.5 33t26.5 18t40 7.5t50 1.5h65v-58h-47v-476h47z" />
    <glyph glyph-name="one" unicode="1" horiz-adv-x="274" 
d="M244 534v-534h-144v534h-70v60h87q127 0 127 -60z" />
    <glyph glyph-name="two" unicode="2" 
d="M454 521v-185q-15 -32 -52 -50t-75 -18h-56v58h39v208h-38v60h52q51 -10 75 -21q36 -17 55 -52zM210 594v-60h-114v60h114zM454 60v-60h-184v60h184zM209 326v-58h-35v-208h35v-60h-179v256q20 42 50 56t77 14h52z" />
    <glyph glyph-name="three" unicode="3" horiz-adv-x="401" 
d="M145 594v-60h-115v60h115zM371 242v-182q0 -14 -11 -25t-29 -19t-40.5 -12t-46.5 -4h-53v60h36v208h-36v58h36v208h-36v60h53q66 0 91 -9q36 -12 36 -51v-198q0 -15 -13.5 -28.5t-28.5 -14.5q14 -4 28 -20.5t14 -30.5zM87 326h58v-58h-58v58zM30 60h115v-60h-115v60z" />
    <glyph glyph-name="four" unicode="4" horiz-adv-x="554" 
d="M524 326v-58h-70v-268h-144v268h-32v58h32v90h144v-90h70zM230 326v-58h-73q-49 0 -88 13t-39 45v268h144v-268h56z" />
    <glyph glyph-name="five" unicode="5" 
d="M454 594v-60h-188v60h188zM174 326h46v-58h-64q-126 0 -126 58v268h190v-60h-46v-208zM327 0h-61v60h44v208h-44v58h188v-266q0 -14 -14 -25t-34.5 -18.5t-42 -12t-36.5 -4.5zM30 60h190v-60h-190v60z" />
    <glyph glyph-name="six" unicode="6" 
d="M368 594v-60h-105v60h105zM454 268v-208q0 -14 -14 -25t-34 -19t-42 -12t-37 -4h-64v60h47v208h-47v58h64q72 0 93 -7q34 -10 34 -51zM218 60v-60h-62q-126 0 -126 60v474q0 17 12.5 28.5t31.5 18.5t41 10t41 3h62v-60h-44v-208h44v-58h-44v-208h44z" />
    <glyph glyph-name="seven" unicode="7" horiz-adv-x="475" 
d="M30 594h204l-25 -60h-179v60zM285 594h160l-253 -594h-154z" />
    <glyph glyph-name="eight" unicode="8" 
d="M454 268v-208q0 -22 -9 -34t-25.5 -18t-40 -7t-51.5 -1h-62v60h44v208h-44v58h44v208h-44v60h62q69 0 89 -7q37 -12 37 -53v-208l-46 -28q46 0 46 -30zM174 60h45v-60h-62q-127 0 -127 60v190q0 48 51 48l-51 28v208q0 41 32 50.5t79 9.5h78v-60h-45v-208h45v-58h-45
v-208z" />
    <glyph glyph-name="nine" unicode="9" 
d="M454 534v-474q0 -60 -127 -60h-64v60h47v208h-47v58h47v207h-47v61h64q64 0 91 -8q36 -12 36 -52zM219 326v-58h-63q-15 0 -37 3.5t-41.5 11t-33.5 18t-14 25.5v208q0 60 126 60h63v-61h-45v-207h45zM219 60v-60h-104v60h104z" />
    <glyph glyph-name="colon" unicode=":" horiz-adv-x="164" 
d="M134 353v-92h-104v92h104zM134 92v-92h-104v92h104z" />
    <glyph glyph-name="semicolon" unicode=";" horiz-adv-x="204" 
d="M163 353v-92h-104v92h104zM174 91v-121q0 -26 -9 -32t-37 -6h-62v38h39v30h-75v91h144z" />
    <glyph glyph-name="less" unicode="&#x3c;" horiz-adv-x="319" 
d="M289 242v-62l-259 168l259 168v-62l-164 -106z" />
    <glyph glyph-name="equal" unicode="=" 
d="M454 455v-50h-424v50h424zM454 191v-50h-424v50h424z" />
    <glyph glyph-name="greater" unicode="&#x3e;" horiz-adv-x="320" 
d="M30 516l260 -168l-260 -168v62l165 106l-165 106v62z" />
    <glyph glyph-name="question" unicode="?" 
d="M454 534v-208q0 -58 -126 -58h-61v58h43v208h-43v60h61q18 0 40 -3t41 -10t32 -18.5t13 -28.5zM30 594h186v-60h-186v60zM216 326v-58h-42v-66h-144v124h186zM174 91v-91h-144v91h144z" />
    <glyph glyph-name="at" unicode="@" horiz-adv-x="624" 
d="M560 534v-372q0 -38 -76 -38h-61v65h43v238h-43v46h43v61h-43v60h61q29 0 52.5 -16t23.5 -44zM110 60h484v-60h-501q-63 0 -63 59v476q0 59 63 59h274v-60h-257v-474zM367 189v-65h-124q-9 0 -21 3t-22.5 8t-17.5 12t-7 15v311h192v-46h-129v-238h129z" />
    <glyph glyph-name="A" unicode="A" 
d="M454 540v-540h-144v268h-41v61h41v210h-41v55h58q127 0 127 -54zM174 329h46v-61h-46v-268h-144v540q0 54 127 54h63v-55h-46v-210z" />
    <glyph glyph-name="B" unicode="B" 
d="M454 248v-188q0 -60 -129 -60h-57v60h42v216h-42v51h42v208h-42v60h60q126 0 126 -60v-208l-40 -30q18 0 29 -15t11 -34zM214 60v-60h-184v595h184v-60h-40v-208h40v-51h-40v-216h40z" />
    <glyph glyph-name="C" unicode="C" horiz-adv-x="394" 
d="M364 594v-60h-90v60h90zM218 60v-60h-61q-127 0 -127 60v474q0 60 127 60h61v-60h-44v-474h44zM364 60v-60h-90v60h90z" />
    <glyph glyph-name="D" unicode="D" 
d="M454 534v-474q0 -14 -14 -25.5t-34 -19t-41.5 -11.5t-37.5 -4h-62v60h45v474h-45v60h62q127 0 127 -60zM174 60h43v-60h-187v594h187v-60h-43v-474z" />
    <glyph glyph-name="E" unicode="E" horiz-adv-x="444" 
d="M414 594v-60h-146v60h146zM321 326v-58h-53v58h53zM217 594v-60h-43v-208h43v-58h-43v-208h43v-60h-187v594h187zM414 60v-60h-146v60h146z" />
    <glyph glyph-name="F" unicode="F" horiz-adv-x="470" 
d="M440 594v-60h-173v60h173zM323 326v-58h-56v58h56zM214 594v-60h-40v-208h40v-58h-40v-268h-144v594h184z" />
    <glyph glyph-name="G" unicode="G" 
d="M454 594v-60h-180v60h180zM454 326v-326h-180v60h36v266h144zM223 594v-60h-49v-474h45v-60h-63q-58 0 -81 5q-45 11 -45 55v474q0 21 10.5 33t28 18t40 7.5t47.5 1.5h67z" />
    <glyph glyph-name="H" unicode="H" 
d="M454 594v-594h-144v268h-39v58h39v268h144zM217 326v-58h-43v-268h-144v594h144v-268h43z" />
    <glyph glyph-name="I" unicode="I" horiz-adv-x="204" 
d="M174 594v-594h-144v594h144z" />
    <glyph glyph-name="J" unicode="J" horiz-adv-x="347" 
d="M317 594v-534q0 -60 -127 -60h-47v60h30v534h144zM30 60h69v-60h-69v60z" />
    <glyph glyph-name="K" unicode="K" horiz-adv-x="499" 
d="M306 594h157l-433 -542v196zM174 594v-105l-144 -176v281h144zM291 310l178 -310h-163l-112 195zM30 0l144 171v-171h-144z" />
    <glyph glyph-name="L" unicode="L" horiz-adv-x="389" 
d="M212 60v-60h-182v594h145v-534h37zM359 60v-60h-99v60h99z" />
    <glyph glyph-name="M" unicode="M" horiz-adv-x="764" 
d="M734 594v-594h-144v305l96 289h48zM503 594h140l-165 -530l-77 208zM248 594l210 -594h-151l-110 357q-7 25 -28 84t-53 153h132zM174 290v-290h-144v594h46z" />
    <glyph glyph-name="N" unicode="N" 
d="M454 594v-437l-144 270v167h144zM454 60v-60h-148l-276 594h148zM174 192v-192h-144v490z" />
    <glyph glyph-name="O" unicode="O" 
d="M454 534v-474q0 -20 -10.5 -32t-28 -18t-40.5 -8t-48 -2h-64v60h47v474h-47v60h64q66 0 90 -8q37 -13 37 -52zM221 60v-60h-65q-126 0 -126 60v474q0 21 9.5 33t26.5 18t40 7.5t50 1.5h65v-58h-47v-476h47z" />
    <glyph glyph-name="P" unicode="P" 
d="M454 534v-208q0 -14 -14 -24.5t-34.5 -18t-42 -11.5t-36.5 -4h-66v58h49v208h-49v60h66q71 0 91 -7q36 -12 36 -53zM174 326h39v-58h-39v-268h-144v594h183v-59h-39v-209z" />
    <glyph glyph-name="Q" unicode="Q" horiz-adv-x="540" 
d="M510 60v-60h-248v60h48v474h-48v60h65q65 0 90 -9q37 -13 37 -51v-474h56zM156 594h65v-60h-47v-474h47v-60h-65q-126 0 -126 60v474q0 20 10.5 32t28 18t40 8t47.5 2z" />
    <glyph glyph-name="R" unicode="R" 
d="M454 534v-208q0 -38 -162 -38h-118v-288h-144v594h188v-60h-44v-208h136v208h-52v60h70q126 0 126 -60zM340 252l103 -252h-137l-103 252h137z" />
    <glyph glyph-name="S" unicode="S" 
d="M434 594v-60h-173v60h173zM217 594v-60h-43v-208h43v-58h-60q-127 0 -127 58v208q0 21 10.5 33t28.5 18t41 7.5t47 1.5h60zM454 268v-208q0 -60 -126 -60h-67v60h49v208h-49v58h67q126 0 126 -58zM217 60v-60h-169v60h169z" />
    <glyph glyph-name="T" unicode="T" horiz-adv-x="403" 
d="M310 594h63v-60h-63v60zM30 594h63v-60h-63v60zM130 594h144v-594h-144v594z" />
    <glyph glyph-name="U" unicode="U" 
d="M310 594h144v-534q0 -60 -126 -60h-62v60h44v534zM216 60v-60h-59q-15 0 -36.5 4t-42 11.5t-34.5 18.5t-14 26v534h144v-534h42z" />
    <glyph glyph-name="V" unicode="V" horiz-adv-x="476" 
d="M260 384l44 210h142l-112 -497zM173 594l129 -594h-138l-134 594h143z" />
    <glyph glyph-name="W" unicode="W" horiz-adv-x="764" 
d="M590 594h144v-534q0 -16 -10 -27.5t-25 -19t-33.5 -10.5t-35.5 -3h-80v60h40v534zM504 60v-60h-233v60h39v534h144v-534h50zM174 60h52v-60h-69q-63 0 -84 6q-43 12 -43 54v534h144v-534z" />
    <glyph glyph-name="X" unicode="X" horiz-adv-x="468" 
d="M434 594l-111 -218l-66 140l41 78h136zM170 594l268 -594h-140l-265 594h137zM134 265l73 -165l-38 -100h-139z" />
    <glyph glyph-name="Y" unicode="Y" 
d="M454 594v-534q0 -60 -126 -60h-56v60h38v208h-42v58h42v268h144zM174 326h41v-58h-58q-15 0 -37 3.5t-42 11t-34 18t-14 25.5v268h144v-268zM30 60h198v-60h-198v60z" />
    <glyph glyph-name="Z" unicode="Z" 
d="M30 594h183l-20 -60h-163v60zM269 594h173l-249 -594h-155zM454 60v-60h-210l24 60h186z" />
    <glyph glyph-name="bracketleft" unicode="[" horiz-adv-x="344" 
d="M314 60v-60h-158q-62 0 -84 7q-42 12 -42 53v474q0 19 10.5 30.5t28 18t40 9t47.5 2.5h158v-60h-140v-474h140z" />
    <glyph glyph-name="backslash" unicode="\" horiz-adv-x="747" 
d="M184 594l533 -594h-153l-534 594h154z" />
    <glyph glyph-name="bracketright" unicode="]" horiz-adv-x="344" 
d="M314 534v-474q0 -16 -14.5 -27t-35 -18.5t-42 -11t-35.5 -3.5h-157v60h140v474h-140v60h157q69 0 87 -5q40 -12 40 -55z" />
    <glyph glyph-name="quoteleft" unicode="`" horiz-adv-x="199" 
d="M124 614l45 -143h-14l-125 143h94z" />
    <glyph glyph-name="a" unicode="a" 
d="M454 540v-540h-144v268h-41v61h41v210h-41v55h58q127 0 127 -54zM174 329h46v-61h-46v-268h-144v540q0 54 127 54h63v-55h-46v-210z" />
    <glyph glyph-name="b" unicode="b" 
d="M454 248v-188q0 -60 -129 -60h-57v60h42v216h-42v51h42v208h-42v60h60q126 0 126 -60v-208l-42 -30q18 0 30 -15t12 -34zM214 60v-60h-184v595h184v-60h-40v-208h40v-51h-40v-216h40z" />
    <glyph glyph-name="c" unicode="c" horiz-adv-x="394" 
d="M364 594v-60h-90v60h90zM218 60v-60h-61q-127 0 -127 60v474q0 60 127 60h61v-60h-44v-474h44zM364 60v-60h-90v60h90z" />
    <glyph glyph-name="d" unicode="d" 
d="M454 534v-474q0 -14 -14 -25.5t-34 -19t-41.5 -11.5t-37.5 -4h-62v60h45v474h-45v60h62q127 0 127 -60zM174 60h43v-60h-187v594h187v-60h-43v-474z" />
    <glyph glyph-name="e" unicode="e" horiz-adv-x="444" 
d="M414 594v-60h-146v60h146zM321 326v-58h-53v58h53zM217 594v-60h-43v-208h43v-58h-43v-208h43v-60h-187v594h187zM414 60v-60h-146v60h146z" />
    <glyph glyph-name="f" unicode="f" horiz-adv-x="470" 
d="M440 594v-60h-173v60h173zM323 326v-58h-56v58h56zM214 594v-60h-40v-208h40v-58h-40v-268h-144v594h184z" />
    <glyph glyph-name="g" unicode="g" 
d="M454 594v-60h-180v60h180zM454 326v-326h-180v60h36v266h144zM223 594v-60h-49v-474h45v-60h-63q-58 0 -81 5q-45 11 -45 55v474q0 21 10.5 33t28 18t40 7.5t47.5 1.5h67z" />
    <glyph glyph-name="h" unicode="h" 
d="M454 594v-594h-144v268h-39v58h39v268h144zM217 326v-58h-43v-268h-144v594h144v-268h43z" />
    <glyph glyph-name="i" unicode="i" horiz-adv-x="204" 
d="M174 594v-594h-144v594h144z" />
    <glyph glyph-name="j" unicode="j" horiz-adv-x="347" 
d="M317 594v-534q0 -60 -127 -60h-47v60h30v534h144zM30 60h69v-60h-69v60z" />
    <glyph glyph-name="k" unicode="k" horiz-adv-x="499" 
d="M306 594h157l-433 -542v196zM174 594v-105l-144 -176v281h144zM291 310l178 -310h-163l-112 195zM30 0l144 171v-171h-144z" />
    <glyph glyph-name="l" unicode="l" horiz-adv-x="389" 
d="M212 60v-60h-182v594h145v-534h37zM359 60v-60h-99v60h99z" />
    <glyph glyph-name="m" unicode="m" horiz-adv-x="764" 
d="M734 594v-594h-144v305l96 289h48zM503 594h140l-165 -530l-77 208zM248 594l210 -594h-151l-110 357q-7 25 -28 84t-53 153h132zM174 290v-290h-144v594h46z" />
    <glyph glyph-name="n" unicode="n" 
d="M454 594v-437l-144 270v167h144zM454 60v-60h-148l-276 594h148zM174 192v-192h-144v490z" />
    <glyph glyph-name="o" unicode="o" 
d="M454 534v-474q0 -20 -10.5 -32t-28 -18t-40.5 -8t-48 -2h-64v60h47v474h-47v60h64q66 0 90 -8q37 -13 37 -52zM221 60v-60h-65q-126 0 -126 60v474q0 21 9.5 33t26.5 18t40 7.5t50 1.5h65v-58h-47v-476h47z" />
    <glyph glyph-name="p" unicode="p" 
d="M454 534v-208q0 -14 -14 -24.5t-34.5 -18t-42 -11.5t-36.5 -4h-66v58h49v208h-49v60h66q71 0 91 -7q36 -12 36 -53zM174 326h39v-58h-39v-268h-144v594h183v-59h-39v-209z" />
    <glyph glyph-name="q" unicode="q" horiz-adv-x="540" 
d="M510 60v-60h-248v60h48v474h-48v60h65q65 0 90 -9q37 -13 37 -51v-474h56zM156 594h65v-60h-47v-474h47v-60h-65q-126 0 -126 60v474q0 20 10.5 32t28 18t40 8t47.5 2z" />
    <glyph glyph-name="r" unicode="r" 
d="M454 534v-208q0 -38 -162 -38h-118v-288h-144v594h188v-60h-44v-208h136v208h-52v60h70q126 0 126 -60zM340 252l103 -252h-137l-103 252h137z" />
    <glyph glyph-name="s" unicode="s" 
d="M434 594v-60h-173v60h173zM217 594v-60h-43v-208h43v-58h-60q-127 0 -127 58v208q0 21 10.5 33t28.5 18t41 7.5t47 1.5h60zM454 268v-208q0 -60 -126 -60h-67v60h49v208h-49v58h67q126 0 126 -58zM217 60v-60h-169v60h169z" />
    <glyph glyph-name="t" unicode="t" horiz-adv-x="403" 
d="M310 594h63v-60h-63v60zM30 594h63v-60h-63v60zM130 594h144v-594h-144v594z" />
    <glyph glyph-name="u" unicode="u" 
d="M310 594h144v-534q0 -60 -126 -60h-62v60h44v534zM216 60v-60h-59q-15 0 -36.5 4t-42 11.5t-34.5 18.5t-14 26v534h144v-534h42z" />
    <glyph glyph-name="v" unicode="v" horiz-adv-x="476" 
d="M260 384l44 210h142l-112 -497zM173 594l129 -594h-138l-134 594h143z" />
    <glyph glyph-name="w" unicode="w" horiz-adv-x="764" 
d="M590 594h144v-534q0 -43 -45 -55q-23 -5 -81 -5h-58v60h40v534zM504 60v-60h-233v60h39v534h144v-534h50zM174 60h52v-60h-69q-63 0 -84 6q-43 12 -43 54v534h144v-534z" />
    <glyph glyph-name="x" unicode="x" horiz-adv-x="468" 
d="M434 594l-111 -218l-66 140l41 78h136zM170 594l268 -594h-140l-265 594h137zM134 265l73 -165l-38 -100h-139z" />
    <glyph glyph-name="y" unicode="y" 
d="M454 594v-534q0 -60 -126 -60h-56v60h38v208h-42v58h42v268h144zM174 326h41v-58h-58q-15 0 -37 3.5t-42 11t-34 18t-14 25.5v268h144v-268zM30 60h198v-60h-198v60z" />
    <glyph glyph-name="z" unicode="z" 
d="M30 594h183l-20 -60h-163v60zM269 594h173l-249 -594h-155zM454 60v-60h-210l24 60h186z" />
    <glyph glyph-name="braceleft" unicode="{" horiz-adv-x="344" 
d="M314 60v-60h-158q-62 0 -84 7q-42 12 -42 53v474q0 19 10.5 30.5t28 18t40 9t47.5 2.5h158v-60h-140v-474h140z" />
    <glyph glyph-name="bar" unicode="|" horiz-adv-x="145" 
d="M30 676h84v-867h-84v867z" />
    <glyph glyph-name="braceright" unicode="}" horiz-adv-x="344" 
d="M314 534v-474q0 -16 -14.5 -27t-35 -18.5t-42 -11t-35.5 -3.5h-157v60h140v474h-140v60h157q69 0 87 -5q40 -12 40 -55z" />
    <glyph glyph-name="FLW133" unicode="&#x2026;" horiz-adv-x="654" 
d="M134 92v-92h-104v92h104zM372 92v-92h-104v92h104zM624 92v-92h-104v92h104z" />
    <glyph glyph-name="FLW145" unicode="&#x2018;" horiz-adv-x="204" 
d="M30 513v120h144v-90h-76v-30h40v-39h-63q-27 0 -36 7t-9 32z" />
    <glyph glyph-name="FLW146" unicode="&#x2019;" horiz-adv-x="204" 
d="M174 633v-120q0 -26 -9 -32.5t-37 -6.5h-62v39h39v30h-75v90h144z" />
    <glyph glyph-name="FLW147" unicode="&#x201c;" horiz-adv-x="414" 
d="M384 577v-90h-144v120q0 25 10 32t36 7h63v-39h-40v-30h75zM174 577v-90h-144v120q0 25 10 32t36 7h63v-39h-40v-30h75z" />
    <glyph glyph-name="FLW148" unicode="&#x201d;" horiz-adv-x="414" 
d="M384 633v-120q0 -26 -9 -32.5t-37 -6.5h-62v39h39v30h-75v90h144zM174 633v-120q0 -26 -9 -32.5t-37 -6.5h-62v39h39v30h-75v90h144z" />
    <glyph glyph-name="FLW192" unicode="&#xc0;" 
d="M454 540v-540h-144v268h-41v61h41v210h-41v55h58q127 0 127 -54zM174 329h46v-61h-46v-268h-144v540q0 54 127 54h63v-55h-46v-210z" />
    <glyph glyph-name="FLW192" unicode="&#x410;" 
d="M454 540v-540h-144v268h-41v61h41v210h-41v55h58q127 0 127 -54zM174 329h46v-61h-46v-268h-144v540q0 54 127 54h63v-55h-46v-210z" />
    <glyph glyph-name="FLW193" unicode="&#xc1;" 
d="M454 276v-216q0 -60 -129 -60h-57v60h42v216h-42v51q44 0 71 -0.5t36 -1.5q79 -10 79 -49zM268 595h186v-60h-186v60zM214 60v-60h-184v595h184v-60h-40v-208h40v-51h-40v-216h40z" />
    <glyph glyph-name="FLW193" unicode="&#x411;" 
d="M454 276v-216q0 -60 -129 -60h-57v60h42v216h-42v51q44 0 71 -0.5t36 -1.5q79 -10 79 -49zM268 595h186v-60h-186v60zM214 60v-60h-184v595h184v-60h-40v-208h40v-51h-40v-216h40z" />
    <glyph glyph-name="FLW194" unicode="&#xc2;" 
d="M454 248v-188q0 -60 -129 -60h-57v60h42v216h-42v51h42v208h-42v60h60q126 0 126 -60v-208l-42 -30q18 0 30 -15t12 -34zM214 60v-60h-184v595h184v-60h-40v-208h40v-51h-40v-216h40z" />
    <glyph glyph-name="FLW194" unicode="&#x412;" 
d="M454 248v-188q0 -60 -129 -60h-57v60h42v216h-42v51h42v208h-42v60h60q126 0 126 -60v-208l-42 -30q18 0 30 -15t12 -34zM214 60v-60h-184v595h184v-60h-40v-208h40v-51h-40v-216h40z" />
    <glyph glyph-name="FLW195" unicode="&#xc3;" horiz-adv-x="444" 
d="M414 594v-60h-146v60h146zM217 594v-60h-43v-534h-144v594h187z" />
    <glyph glyph-name="FLW195" unicode="&#x413;" horiz-adv-x="444" 
d="M414 594v-60h-146v60h146zM217 594v-60h-43v-534h-144v594h187z" />
    <glyph glyph-name="FLW196" unicode="&#xc4;" horiz-adv-x="599" 
d="M569 60v-60h-248v60h48v474h-48v60h192v-534h56zM30 0v60h59v474q0 20 10.5 32t28 18t40 8t47.5 2h65v-60h-47v-474h47v-60h-250z" />
    <glyph glyph-name="FLW196" unicode="&#x414;" horiz-adv-x="599" 
d="M569 60v-60h-248v60h48v474h-48v60h192v-534h56zM30 0v60h59v474q0 20 10.5 32t28 18t40 8t47.5 2h65v-60h-47v-474h47v-60h-250z" />
    <glyph glyph-name="FLW197" unicode="&#xc5;" horiz-adv-x="444" 
d="M414 594v-60h-146v60h146zM321 326v-58h-53v58h53zM217 594v-60h-43v-208h43v-58h-43v-208h43v-60h-187v594h187zM414 60v-60h-146v60h146z" />
    <glyph glyph-name="FLW197" unicode="&#x415;" horiz-adv-x="444" 
d="M414 594v-60h-146v60h146zM321 326v-58h-53v58h53zM217 594v-60h-43v-208h43v-58h-43v-208h43v-60h-187v594h187zM414 60v-60h-146v60h146z" />
    <glyph glyph-name="FLW198" unicode="&#xc6;" horiz-adv-x="788" 
d="M396 154l-359 441h156l202 -252l203 252h155zM395 407l-70 87v101h138v-106zM580 310l178 -310h-163l-112 195zM325 0v172l70 -85l68 84v-171h-138zM191 0h-161l179 309l94 -114z" />
    <glyph glyph-name="FLW198" unicode="&#x416;" horiz-adv-x="788" 
d="M396 154l-359 441h156l202 -252l203 252h155zM395 407l-70 87v101h138v-106zM580 310l178 -310h-163l-112 195zM325 0v172l70 -85l68 84v-171h-138zM191 0h-161l179 309l94 -114z" />
    <glyph glyph-name="FLW199" unicode="&#xc7;" 
d="M454 248v-188q0 -60 -129 -60h-57v60h42v216h-42v51h42v208h-42v60h60q126 0 126 -60v-208l-40 -30q17 0 28.5 -15.5t11.5 -33.5zM214 60v-60h-184v60h184zM214 276h-40v51h40v-51zM214 595v-60h-184v60h184z" />
    <glyph glyph-name="FLW199" unicode="&#x417;" 
d="M454 248v-188q0 -60 -129 -60h-57v60h42v216h-42v51h42v208h-42v60h60q126 0 126 -60v-208l-40 -30q17 0 28.5 -15.5t11.5 -33.5zM214 60v-60h-184v60h184zM214 276h-40v51h40v-51zM214 595v-60h-184v60h184z" />
    <glyph glyph-name="FLW200" unicode="&#xc8;" 
d="M174 427l-144 -270v437h144v-167zM178 0h-148v60l276 534h148zM454 0h-144v192l144 298v-490z" />
    <glyph glyph-name="FLW200" unicode="&#x418;" 
d="M174 427l-144 -270v437h144v-167zM178 0h-148v60l276 534h148zM454 0h-144v192l144 298v-490z" />
    <glyph glyph-name="FLW201" unicode="&#xc9;" 
d="M174 427l-144 -270v437h144v-167zM178 0h-148v60l276 534h148zM454 0h-144v192l144 298v-490zM206 635h85l-85 -166v166z" />
    <glyph glyph-name="FLW201" unicode="&#x419;" 
d="M174 427l-144 -270v437h144v-167zM178 0h-148v60l276 534h148zM454 0h-144v192l144 298v-490zM206 635h85l-85 -166v166z" />
    <glyph glyph-name="FLW202" unicode="&#xca;" horiz-adv-x="499" 
d="M306 594h157l-433 -542v196zM174 594v-105l-144 -176v281h144zM291 310l178 -310h-163l-112 195zM30 0l144 171v-171h-144z" />
    <glyph glyph-name="FLW202" unicode="&#x41a;" horiz-adv-x="499" 
d="M306 594h157l-433 -542v196zM174 594v-105l-144 -176v281h144zM291 310l178 -310h-163l-112 195zM30 0l144 171v-171h-144z" />
    <glyph glyph-name="FLW203" unicode="&#xcb;" horiz-adv-x="476" 
d="M216 210l-44 -210h-142l112 497zM303 0l-129 594h138l134 -594h-143z" />
    <glyph glyph-name="FLW203" unicode="&#x41b;" horiz-adv-x="476" 
d="M216 210l-44 -210h-142l112 497zM303 0l-129 594h138l134 -594h-143z" />
    <glyph glyph-name="FLW204" unicode="&#xcc;" horiz-adv-x="764" 
d="M734 594v-594h-144v305l96 289h48zM503 594h140l-165 -530l-77 208zM248 594l210 -594h-151l-110 357q-7 25 -28 84t-53 153h132zM174 290v-290h-144v594h46z" />
    <glyph glyph-name="FLW204" unicode="&#x41c;" horiz-adv-x="764" 
d="M734 594v-594h-144v305l96 289h48zM503 594h140l-165 -530l-77 208zM248 594l210 -594h-151l-110 357q-7 25 -28 84t-53 153h132zM174 290v-290h-144v594h46z" />
    <glyph glyph-name="FLW205" unicode="&#xcd;" 
d="M454 594v-594h-144v268h-39v58h39v268h144zM217 326v-58h-43v-268h-144v594h144v-268h43z" />
    <glyph glyph-name="FLW205" unicode="&#x41d;" 
d="M454 594v-594h-144v268h-39v58h39v268h144zM217 326v-58h-43v-268h-144v594h144v-268h43z" />
    <glyph glyph-name="FLW206" unicode="&#xce;" 
d="M454 534v-474q0 -20 -10.5 -32t-28 -18t-40.5 -8t-48 -2h-64v60h47v474h-47v60h64q66 0 90 -8q37 -13 37 -52zM221 60v-60h-65q-126 0 -126 60v474q0 21 9.5 33t26.5 18t40 7.5t50 1.5h65v-58h-47v-476h47z" />
    <glyph glyph-name="FLW206" unicode="&#x41e;" 
d="M454 534v-474q0 -20 -10.5 -32t-28 -18t-40.5 -8t-48 -2h-64v60h47v474h-47v60h64q66 0 90 -8q37 -13 37 -52zM221 60v-60h-65q-126 0 -126 60v474q0 21 9.5 33t26.5 18t40 7.5t50 1.5h65v-58h-47v-476h47z" />
    <glyph glyph-name="FLW207" unicode="&#xcf;" 
d="M454 594v-594h-144v534h-44v60h188zM30 594h186v-60h-42v-534h-144v594z" />
    <glyph glyph-name="FLW207" unicode="&#x41f;" 
d="M454 594v-594h-144v534h-44v60h188zM30 594h186v-60h-42v-534h-144v594z" />
    <glyph glyph-name="FLW208" unicode="&#xd0;" 
d="M454 534v-208q0 -14 -14 -24.5t-34.5 -18t-42 -11.5t-36.5 -4h-66v58h49v208h-49v60h66q71 0 91 -7q36 -12 36 -53zM174 326h39v-58h-39v-268h-144v594h183v-59h-39v-209z" />
    <glyph glyph-name="FLW208" unicode="&#x420;" 
d="M454 534v-208q0 -14 -14 -24.5t-34.5 -18t-42 -11.5t-36.5 -4h-66v58h49v208h-49v60h66q71 0 91 -7q36 -12 36 -53zM174 326h39v-58h-39v-268h-144v594h183v-59h-39v-209z" />
    <glyph glyph-name="FLW209" unicode="&#xd1;" horiz-adv-x="394" 
d="M364 594v-60h-90v60h90zM218 60v-60h-61q-127 0 -127 60v474q0 60 127 60h61v-60h-44v-474h44zM364 60v-60h-90v60h90z" />
    <glyph glyph-name="FLW209" unicode="&#x421;" horiz-adv-x="394" 
d="M364 594v-60h-90v60h90zM218 60v-60h-61q-127 0 -127 60v474q0 60 127 60h61v-60h-44v-474h44zM364 60v-60h-90v60h90z" />
    <glyph glyph-name="FLW210" unicode="&#xd2;" horiz-adv-x="403" 
d="M310 594h63v-60h-63v60zM30 594h63v-60h-63v60zM130 594h144v-594h-144v594z" />
    <glyph glyph-name="FLW210" unicode="&#x422;" horiz-adv-x="403" 
d="M310 594h63v-60h-63v60zM30 594h63v-60h-63v60zM130 594h144v-594h-144v594z" />
    <glyph glyph-name="FLW211" unicode="&#xd3;" 
d="M454 594v-534q0 -60 -126 -60h-56v60h38v208h-42v58h42v268h144zM174 326h41v-58h-58q-15 0 -37 3.5t-42 11t-34 18t-14 25.5v268h144v-268zM30 60h198v-60h-198v60z" />
    <glyph glyph-name="FLW211" unicode="&#x423;" 
d="M454 594v-534q0 -60 -126 -60h-56v60h38v208h-42v58h42v268h144zM174 326h41v-58h-58q-15 0 -37 3.5t-42 11t-34 18t-14 25.5v268h144v-268zM30 60h198v-60h-198v60z" />
    <glyph glyph-name="FLW212" unicode="&#xd4;" horiz-adv-x="658" 
d="M628 534v-208q0 -13 -12 -24t-28.5 -18.5t-35 -11.5t-32.5 -4h-56v58h42v208h-42v60h56q63 0 78 -7q30 -12 30 -53zM235 268v58h33v208h-33v60h188v-60h-33v-208h33v-58h-33v-268h-122v268h-33zM30 326v208q0 44 27 52t81 8h56v-60h-42v-208h42v-58h-56q-13 0 -31.5 4
t-35.5 11.5t-29 18.5t-12 24z" />
    <glyph glyph-name="FLW212" unicode="&#x424;" horiz-adv-x="658" 
d="M628 534v-208q0 -13 -12 -24t-28.5 -18.5t-35 -11.5t-32.5 -4h-56v58h42v208h-42v60h56q63 0 78 -7q30 -12 30 -53zM235 268v58h33v208h-33v60h188v-60h-33v-208h33v-58h-33v-268h-122v268h-33zM30 326v208q0 44 27 52t81 8h56v-60h-42v-208h42v-58h-56q-13 0 -31.5 4
t-35.5 11.5t-29 18.5t-12 24z" />
    <glyph glyph-name="FLW213" unicode="&#xd5;" horiz-adv-x="468" 
d="M434 594l-111 -218l-66 140l41 78h136zM170 594l268 -594h-140l-265 594h137zM134 265l73 -165l-38 -100h-139z" />
    <glyph glyph-name="FLW213" unicode="&#x425;" horiz-adv-x="468" 
d="M434 594l-111 -218l-66 140l41 78h136zM170 594l268 -594h-140l-265 594h137zM134 265l73 -165l-38 -100h-139z" />
    <glyph glyph-name="FLW214" unicode="&#xd6;" horiz-adv-x="540" 
d="M510 60v-60h-248v60h48v534h144v-534h56zM30 594h144v-534h47v-60h-65q-126 0 -126 60v534z" />
    <glyph glyph-name="FLW214" unicode="&#x426;" horiz-adv-x="540" 
d="M510 60v-60h-248v60h48v534h144v-534h56zM30 594h144v-534h47v-60h-65q-126 0 -126 60v534z" />
    <glyph glyph-name="FLW215" unicode="&#xd7;" 
d="M454 594v-594h-144v268h-39v58h39v268h144zM217 326v-58h-187v326h144v-268h43z" />
    <glyph glyph-name="FLW215" unicode="&#x427;" 
d="M454 594v-594h-144v268h-39v58h39v268h144zM217 326v-58h-187v326h144v-268h43z" />
    <glyph glyph-name="FLW216" unicode="&#xd8;" horiz-adv-x="764" 
d="M590 595h144v-595h-184v61h40v534zM504 61v-61h-233v61h39v534h144v-534h50zM174 61h52v-61h-77q-52 0 -76 7q-43 12 -43 54v534h144v-534z" />
    <glyph glyph-name="FLW216" unicode="&#x428;" horiz-adv-x="764" 
d="M590 595h144v-595h-184v61h40v534zM504 61v-61h-233v61h39v534h144v-534h50zM174 61h52v-61h-77q-52 0 -76 7q-43 12 -43 54v534h144v-534z" />
    <glyph glyph-name="FLW217" unicode="&#xd9;" horiz-adv-x="812" 
d="M590 595h144v-534h48v-61h-232v61h40v534zM504 61v-61h-233v61h39v534h144v-534h50zM174 61h53v-61h-70q-60 0 -84 7q-43 12 -43 54v534h144v-534z" />
    <glyph glyph-name="FLW217" unicode="&#x429;" horiz-adv-x="812" 
d="M590 595h144v-534h48v-61h-232v61h40v534zM504 61v-61h-233v61h39v534h144v-534h50zM174 61h53v-61h-70q-60 0 -84 7q-43 12 -43 54v534h144v-534z" />
    <glyph glyph-name="FLW218" unicode="&#xda;" horiz-adv-x="533" 
d="M503 268v-208q0 -22 -9.5 -34t-26 -18t-40 -7t-51.5 -1h-66v60h49v208h-49v58h66q18 0 40 -3.5t41.5 -10.5t32.5 -18t13 -26zM30 534v60h193v-268h39v-58h-39v-209h39v-59h-183v534h-49z" />
    <glyph glyph-name="FLW218" unicode="&#x42a;" horiz-adv-x="533" 
d="M503 268v-208q0 -22 -9.5 -34t-26 -18t-40 -7t-51.5 -1h-66v60h49v208h-49v58h66q18 0 40 -3.5t41.5 -10.5t32.5 -18t13 -26zM30 534v60h193v-268h39v-58h-39v-209h39v-59h-183v534h-49z" />
    <glyph glyph-name="FLW219" unicode="&#xdb;" horiz-adv-x="690" 
d="M454 268v-208q0 -22 -10.5 -34.5t-28.5 -18t-41 -6.5t-47 -1h-66v60h49v208h-49v58h66q18 0 40 -3.5t41.5 -10.5t32.5 -18t13 -26zM213 326v-58h-39v-209h39v-59h-183v594h144v-268h39zM660 594v-594h-144v594h144z" />
    <glyph glyph-name="FLW219" unicode="&#x42b;" horiz-adv-x="690" 
d="M454 268v-208q0 -22 -10.5 -34.5t-28.5 -18t-41 -6.5t-47 -1h-66v60h49v208h-49v58h66q18 0 40 -3.5t41.5 -10.5t32.5 -18t13 -26zM213 326v-58h-39v-209h39v-59h-183v594h144v-268h39zM660 594v-594h-144v594h144z" />
    <glyph glyph-name="FLW220" unicode="&#xdc;" 
d="M454 268v-208q0 -22 -10.5 -34.5t-28.5 -18t-41 -6.5t-47 -1h-66v60h49v208h-49v58h66q18 0 40 -3.5t41.5 -10.5t32.5 -18t13 -26zM213 326v-58h-39v-209h39v-59h-183v594h144v-268h39z" />
    <glyph glyph-name="FLW220" unicode="&#x42c;" 
d="M454 268v-208q0 -22 -10.5 -34.5t-28.5 -18t-41 -6.5t-47 -1h-66v60h49v208h-49v58h66q18 0 40 -3.5t41.5 -10.5t32.5 -18t13 -26zM213 326v-58h-39v-209h39v-59h-183v594h144v-268h39z" />
    <glyph glyph-name="FLW221" unicode="&#xdd;" 
d="M174 484h-144v110h180v-60h-36v-50zM210 0h-180v103h144v-43h36v-60zM310 534h-49v60h67q59 0 86 -8q40 -13 40 -52v-474q0 -44 -45 -55q-23 -5 -81 -5h-67v60h49v196h-49v58h49v220zM210 313v-58h-53v58h53z" />
    <glyph glyph-name="FLW221" unicode="&#x42d;" 
d="M174 484h-144v110h180v-60h-36v-50zM210 0h-180v103h144v-43h36v-60zM310 534h-49v60h67q59 0 86 -8q40 -13 40 -52v-474q0 -44 -45 -55q-23 -5 -81 -5h-67v60h49v196h-49v58h49v220zM210 313v-58h-53v58h53z" />
    <glyph glyph-name="FLW222" unicode="&#xde;" horiz-adv-x="699" 
d="M669 534v-474q0 -20 -10.5 -32t-28 -18t-40.5 -8t-48 -2h-64v60h47v474h-47v60h64q66 0 90 -8q37 -13 37 -52zM436 60v-60h-65q-126 0 -126 60v474q0 21 9.5 33t26.5 18t40 7.5t50 1.5h65v-58h-47v-476h47zM174 257v-257h-144v595h144v-280h30v-58h-30z" />
    <glyph glyph-name="FLW222" unicode="&#x42e;" horiz-adv-x="699" 
d="M669 534v-474q0 -20 -10.5 -32t-28 -18t-40.5 -8t-48 -2h-64v60h47v474h-47v60h64q66 0 90 -8q37 -13 37 -52zM436 60v-60h-65q-126 0 -126 60v474q0 21 9.5 33t26.5 18t40 7.5t50 1.5h65v-58h-47v-476h47zM174 257v-257h-144v595h144v-280h30v-58h-30z" />
    <glyph glyph-name="FLW223" unicode="&#xdf;" 
d="M30 326v208q0 60 126 60h70v-60h-52v-208h136v208h-44v60h188v-594h-144v288h-118q-162 0 -162 38zM178 0h-137l103 252h137z" />
    <glyph glyph-name="FLW223" unicode="&#x42f;" 
d="M30 326v208q0 60 126 60h70v-60h-52v-208h136v208h-44v60h188v-594h-144v288h-118q-162 0 -162 38zM178 0h-137l103 252h137z" />
    <glyph glyph-name="FLW224" unicode="&#xe0;" 
d="M454 540v-540h-144v268h-41v61h41v210h-41v55h58q127 0 127 -54zM174 329h46v-61h-46v-268h-144v540q0 54 127 54h63v-55h-46v-210z" />
    <glyph glyph-name="FLW224" unicode="&#x430;" 
d="M454 540v-540h-144v268h-41v61h41v210h-41v55h58q127 0 127 -54zM174 329h46v-61h-46v-268h-144v540q0 54 127 54h63v-55h-46v-210z" />
    <glyph glyph-name="FLW225" unicode="&#xe1;" 
d="M454 276v-216q0 -60 -129 -60h-57v60h42v216h-42v51q44 0 71 -0.5t36 -1.5q79 -10 79 -49zM268 595h186v-60h-186v60zM214 60v-60h-184v595h184v-60h-40v-208h40v-51h-40v-216h40z" />
    <glyph glyph-name="FLW225" unicode="&#x431;" 
d="M454 276v-216q0 -60 -129 -60h-57v60h42v216h-42v51q44 0 71 -0.5t36 -1.5q79 -10 79 -49zM268 595h186v-60h-186v60zM214 60v-60h-184v595h184v-60h-40v-208h40v-51h-40v-216h40z" />
    <glyph glyph-name="FLW226" unicode="&#xe2;" 
d="M454 248v-188q0 -60 -129 -60h-57v60h42v216h-42v51h42v208h-42v60h60q126 0 126 -60v-208l-42 -30q18 0 30 -15t12 -34zM214 60v-60h-184v595h184v-60h-40v-208h40v-51h-40v-216h40z" />
    <glyph glyph-name="FLW226" unicode="&#x432;" 
d="M454 248v-188q0 -60 -129 -60h-57v60h42v216h-42v51h42v208h-42v60h60q126 0 126 -60v-208l-42 -30q18 0 30 -15t12 -34zM214 60v-60h-184v595h184v-60h-40v-208h40v-51h-40v-216h40z" />
    <glyph glyph-name="FLW227" unicode="&#xe3;" horiz-adv-x="444" 
d="M414 594v-60h-146v60h146zM217 594v-60h-43v-534h-144v594h187z" />
    <glyph glyph-name="FLW227" unicode="&#x433;" horiz-adv-x="444" 
d="M414 594v-60h-146v60h146zM217 594v-60h-43v-534h-144v594h187z" />
    <glyph glyph-name="FLW228" unicode="&#xe4;" horiz-adv-x="599" 
d="M569 60v-60h-248v60h48v474h-48v60h192v-534h56zM30 0v60h59v474q0 20 10.5 32t28 18t40 8t47.5 2h65v-60h-47v-474h47v-60h-250z" />
    <glyph glyph-name="FLW228" unicode="&#x434;" horiz-adv-x="599" 
d="M569 60v-60h-248v60h48v474h-48v60h192v-534h56zM30 0v60h59v474q0 20 10.5 32t28 18t40 8t47.5 2h65v-60h-47v-474h47v-60h-250z" />
    <glyph glyph-name="FLW229" unicode="&#xe5;" horiz-adv-x="444" 
d="M414 594v-60h-146v60h146zM321 326v-58h-53v58h53zM217 594v-60h-43v-208h43v-58h-43v-208h43v-60h-187v594h187zM414 60v-60h-146v60h146z" />
    <glyph glyph-name="FLW229" unicode="&#x435;" horiz-adv-x="444" 
d="M414 594v-60h-146v60h146zM321 326v-58h-53v58h53zM217 594v-60h-43v-208h43v-58h-43v-208h43v-60h-187v594h187zM414 60v-60h-146v60h146z" />
    <glyph glyph-name="FLW230" unicode="&#xe6;" horiz-adv-x="788" 
d="M396 154l-359 441h156l202 -252l203 252h155zM395 407l-70 87v101h138v-106zM580 310l178 -310h-163l-112 195zM325 0v172l70 -85l68 84v-171h-138zM191 0h-161l179 309l94 -114z" />
    <glyph glyph-name="FLW230" unicode="&#x436;" horiz-adv-x="788" 
d="M396 154l-359 441h156l202 -252l203 252h155zM395 407l-70 87v101h138v-106zM580 310l178 -310h-163l-112 195zM325 0v172l70 -85l68 84v-171h-138zM191 0h-161l179 309l94 -114z" />
    <glyph glyph-name="FLW231" unicode="&#xe7;" 
d="M454 248v-188q0 -60 -129 -60h-57v60h42v216h-42v51h42v208h-42v60h60q126 0 126 -60v-208l-40 -30q17 0 28.5 -15.5t11.5 -33.5zM214 60v-60h-184v60h184zM214 276h-40v51h40v-51zM214 595v-60h-184v60h184z" />
    <glyph glyph-name="FLW231" unicode="&#x437;" 
d="M454 248v-188q0 -60 -129 -60h-57v60h42v216h-42v51h42v208h-42v60h60q126 0 126 -60v-208l-40 -30q17 0 28.5 -15.5t11.5 -33.5zM214 60v-60h-184v60h184zM214 276h-40v51h40v-51zM214 595v-60h-184v60h184z" />
    <glyph glyph-name="FLW232" unicode="&#xe8;" 
d="M174 427l-144 -270v437h144v-167zM178 0h-148v60l276 534h148zM454 0h-144v192l144 298v-490z" />
    <glyph glyph-name="FLW232" unicode="&#x438;" 
d="M174 427l-144 -270v437h144v-167zM178 0h-148v60l276 534h148zM454 0h-144v192l144 298v-490z" />
    <glyph glyph-name="FLW233" unicode="&#xe9;" 
d="M174 427l-144 -270v437h144v-167zM178 0h-148v60l276 534h148zM454 0h-144v192l144 298v-490zM206 635h85l-85 -166v166z" />
    <glyph glyph-name="FLW233" unicode="&#x439;" 
d="M174 427l-144 -270v437h144v-167zM178 0h-148v60l276 534h148zM454 0h-144v192l144 298v-490zM206 635h85l-85 -166v166z" />
    <glyph glyph-name="FLW234" unicode="&#xea;" horiz-adv-x="499" 
d="M306 594h157l-433 -542v196zM174 594v-105l-144 -176v281h144zM291 310l178 -310h-163l-112 195zM30 0l144 171v-171h-144z" />
    <glyph glyph-name="FLW234" unicode="&#x43a;" horiz-adv-x="499" 
d="M306 594h157l-433 -542v196zM174 594v-105l-144 -176v281h144zM291 310l178 -310h-163l-112 195zM30 0l144 171v-171h-144z" />
    <glyph glyph-name="FLW235" unicode="&#xeb;" horiz-adv-x="476" 
d="M216 210l-44 -210h-142l112 497zM303 0l-129 594h138l134 -594h-143z" />
    <glyph glyph-name="FLW235" unicode="&#x43b;" horiz-adv-x="476" 
d="M216 210l-44 -210h-142l112 497zM303 0l-129 594h138l134 -594h-143z" />
    <glyph glyph-name="FLW236" unicode="&#xec;" horiz-adv-x="764" 
d="M734 594v-594h-144v305l96 289h48zM503 594h140l-165 -530l-77 208zM248 594l210 -594h-151l-110 357q-7 25 -28 84t-53 153h132zM174 290v-290h-144v594h46z" />
    <glyph glyph-name="FLW236" unicode="&#x43c;" horiz-adv-x="764" 
d="M734 594v-594h-144v305l96 289h48zM503 594h140l-165 -530l-77 208zM248 594l210 -594h-151l-110 357q-7 25 -28 84t-53 153h132zM174 290v-290h-144v594h46z" />
    <glyph glyph-name="FLW237" unicode="&#xed;" 
d="M454 594v-594h-144v268h-39v58h39v268h144zM217 326v-58h-43v-268h-144v594h144v-268h43z" />
    <glyph glyph-name="FLW237" unicode="&#x43d;" 
d="M454 594v-594h-144v268h-39v58h39v268h144zM217 326v-58h-43v-268h-144v594h144v-268h43z" />
    <glyph glyph-name="FLW238" unicode="&#xee;" 
d="M454 534v-474q0 -20 -10.5 -32t-28 -18t-40.5 -8t-48 -2h-64v60h47v474h-47v60h64q66 0 90 -8q37 -13 37 -52zM221 60v-60h-65q-126 0 -126 60v474q0 21 9.5 33t26.5 18t40 7.5t50 1.5h65v-58h-47v-476h47z" />
    <glyph glyph-name="FLW238" unicode="&#x43e;" 
d="M454 534v-474q0 -20 -10.5 -32t-28 -18t-40.5 -8t-48 -2h-64v60h47v474h-47v60h64q66 0 90 -8q37 -13 37 -52zM221 60v-60h-65q-126 0 -126 60v474q0 21 9.5 33t26.5 18t40 7.5t50 1.5h65v-58h-47v-476h47z" />
    <glyph glyph-name="FLW239" unicode="&#xef;" 
d="M454 594v-594h-144v534h-44v60h188zM30 594h186v-60h-42v-534h-144v594z" />
    <glyph glyph-name="FLW239" unicode="&#x43f;" 
d="M454 594v-594h-144v534h-44v60h188zM30 594h186v-60h-42v-534h-144v594z" />
    <glyph glyph-name="FLW240" unicode="&#xf0;" 
d="M454 534v-208q0 -14 -14 -24.5t-34.5 -18t-42 -11.5t-36.5 -4h-66v58h49v208h-49v60h66q71 0 91 -7q36 -12 36 -53zM174 326h39v-58h-39v-268h-144v594h183v-59h-39v-209z" />
    <glyph glyph-name="FLW240" unicode="&#x440;" 
d="M454 534v-208q0 -14 -14 -24.5t-34.5 -18t-42 -11.5t-36.5 -4h-66v58h49v208h-49v60h66q71 0 91 -7q36 -12 36 -53zM174 326h39v-58h-39v-268h-144v594h183v-59h-39v-209z" />
    <glyph glyph-name="FLW241" unicode="&#xf1;" horiz-adv-x="394" 
d="M364 594v-60h-90v60h90zM218 60v-60h-61q-127 0 -127 60v474q0 60 127 60h61v-60h-44v-474h44zM364 60v-60h-90v60h90z" />
    <glyph glyph-name="FLW241" unicode="&#x441;" horiz-adv-x="394" 
d="M364 594v-60h-90v60h90zM218 60v-60h-61q-127 0 -127 60v474q0 60 127 60h61v-60h-44v-474h44zM364 60v-60h-90v60h90z" />
    <glyph glyph-name="FLW242" unicode="&#xf2;" horiz-adv-x="403" 
d="M310 594h63v-60h-63v60zM30 594h63v-60h-63v60zM130 594h144v-594h-144v594z" />
    <glyph glyph-name="FLW242" unicode="&#x442;" horiz-adv-x="403" 
d="M310 594h63v-60h-63v60zM30 594h63v-60h-63v60zM130 594h144v-594h-144v594z" />
    <glyph glyph-name="FLW243" unicode="&#xf3;" 
d="M454 594v-534q0 -60 -126 -60h-56v60h38v208h-42v58h42v268h144zM174 326h41v-58h-58q-15 0 -37 3.5t-42 11t-34 18t-14 25.5v268h144v-268zM30 60h198v-60h-198v60z" />
    <glyph glyph-name="FLW243" unicode="&#x443;" 
d="M454 594v-534q0 -60 -126 -60h-56v60h38v208h-42v58h42v268h144zM174 326h41v-58h-58q-15 0 -37 3.5t-42 11t-34 18t-14 25.5v268h144v-268zM30 60h198v-60h-198v60z" />
    <glyph glyph-name="FLW244" unicode="&#xf4;" horiz-adv-x="658" 
d="M628 534v-208q0 -13 -12 -24t-28.5 -18.5t-35 -11.5t-32.5 -4h-56v58h42v208h-42v60h56q63 0 78 -7q30 -12 30 -53zM235 268v58h33v208h-33v60h188v-60h-33v-208h33v-58h-33v-268h-122v268h-33zM30 326v208q0 44 27 52t81 8h56v-60h-42v-208h42v-58h-56q-13 0 -31.5 4
t-35.5 11.5t-29 18.5t-12 24z" />
    <glyph glyph-name="FLW244" unicode="&#x444;" horiz-adv-x="658" 
d="M628 534v-208q0 -13 -12 -24t-28.5 -18.5t-35 -11.5t-32.5 -4h-56v58h42v208h-42v60h56q63 0 78 -7q30 -12 30 -53zM235 268v58h33v208h-33v60h188v-60h-33v-208h33v-58h-33v-268h-122v268h-33zM30 326v208q0 44 27 52t81 8h56v-60h-42v-208h42v-58h-56q-13 0 -31.5 4
t-35.5 11.5t-29 18.5t-12 24z" />
    <glyph glyph-name="FLW245" unicode="&#xf5;" horiz-adv-x="468" 
d="M434 594l-111 -218l-66 140l41 78h136zM170 594l268 -594h-140l-265 594h137zM134 265l73 -165l-38 -100h-139z" />
    <glyph glyph-name="FLW245" unicode="&#x445;" horiz-adv-x="468" 
d="M434 594l-111 -218l-66 140l41 78h136zM170 594l268 -594h-140l-265 594h137zM134 265l73 -165l-38 -100h-139z" />
    <glyph glyph-name="FLW246" unicode="&#xf6;" horiz-adv-x="540" 
d="M510 60v-60h-248v60h48v534h144v-534h56zM30 594h144v-534h47v-60h-65q-126 0 -126 60v534z" />
    <glyph glyph-name="FLW246" unicode="&#x446;" horiz-adv-x="540" 
d="M510 60v-60h-248v60h48v534h144v-534h56zM30 594h144v-534h47v-60h-65q-126 0 -126 60v534z" />
    <glyph glyph-name="FLW247" unicode="&#xf7;" 
d="M454 594v-594h-144v268h-39v58h39v268h144zM217 326v-58h-187v326h144v-268h43z" />
    <glyph glyph-name="FLW247" unicode="&#x447;" 
d="M454 594v-594h-144v268h-39v58h39v268h144zM217 326v-58h-187v326h144v-268h43z" />
    <glyph glyph-name="FLW248" unicode="&#xf8;" horiz-adv-x="764" 
d="M590 595h144v-595h-184v61h40v534zM504 61v-61h-233v61h39v534h144v-534h50zM174 61h52v-61h-77q-52 0 -76 7q-43 12 -43 54v534h144v-534z" />
    <glyph glyph-name="FLW248" unicode="&#x448;" horiz-adv-x="764" 
d="M590 595h144v-595h-184v61h40v534zM504 61v-61h-233v61h39v534h144v-534h50zM174 61h52v-61h-77q-52 0 -76 7q-43 12 -43 54v534h144v-534z" />
    <glyph glyph-name="FLW249" unicode="&#xf9;" horiz-adv-x="812" 
d="M590 595h144v-534h48v-61h-232v61h40v534zM504 61v-61h-233v61h39v534h144v-534h50zM174 61h53v-61h-70q-60 0 -84 7q-43 12 -43 54v534h144v-534z" />
    <glyph glyph-name="FLW249" unicode="&#x449;" horiz-adv-x="812" 
d="M590 595h144v-534h48v-61h-232v61h40v534zM504 61v-61h-233v61h39v534h144v-534h50zM174 61h53v-61h-70q-60 0 -84 7q-43 12 -43 54v534h144v-534z" />
    <glyph glyph-name="FLW250" unicode="&#xfa;" horiz-adv-x="533" 
d="M503 268v-208q0 -22 -9.5 -34t-26 -18t-40 -7t-51.5 -1h-66v60h49v208h-49v58h66q18 0 40 -3.5t41.5 -10.5t32.5 -18t13 -26zM30 534v60h193v-268h39v-58h-39v-209h39v-59h-183v534h-49z" />
    <glyph glyph-name="FLW250" unicode="&#x44a;" horiz-adv-x="533" 
d="M503 268v-208q0 -22 -9.5 -34t-26 -18t-40 -7t-51.5 -1h-66v60h49v208h-49v58h66q18 0 40 -3.5t41.5 -10.5t32.5 -18t13 -26zM30 534v60h193v-268h39v-58h-39v-209h39v-59h-183v534h-49z" />
    <glyph glyph-name="FLW251" unicode="&#xfb;" horiz-adv-x="690" 
d="M454 268v-208q0 -22 -10.5 -34.5t-28.5 -18t-41 -6.5t-47 -1h-66v60h49v208h-49v58h66q18 0 40 -3.5t41.5 -10.5t32.5 -18t13 -26zM213 326v-58h-39v-209h39v-59h-183v594h144v-268h39zM660 594v-594h-144v594h144z" />
    <glyph glyph-name="FLW251" unicode="&#x44b;" horiz-adv-x="690" 
d="M454 268v-208q0 -22 -10.5 -34.5t-28.5 -18t-41 -6.5t-47 -1h-66v60h49v208h-49v58h66q18 0 40 -3.5t41.5 -10.5t32.5 -18t13 -26zM213 326v-58h-39v-209h39v-59h-183v594h144v-268h39zM660 594v-594h-144v594h144z" />
    <glyph glyph-name="FLW252" unicode="&#xfc;" 
d="M454 268v-208q0 -22 -10.5 -34.5t-28.5 -18t-41 -6.5t-47 -1h-66v60h49v208h-49v58h66q18 0 40 -3.5t41.5 -10.5t32.5 -18t13 -26zM213 326v-58h-39v-209h39v-59h-183v594h144v-268h39z" />
    <glyph glyph-name="FLW252" unicode="&#x44c;" 
d="M454 268v-208q0 -22 -10.5 -34.5t-28.5 -18t-41 -6.5t-47 -1h-66v60h49v208h-49v58h66q18 0 40 -3.5t41.5 -10.5t32.5 -18t13 -26zM213 326v-58h-39v-209h39v-59h-183v594h144v-268h39z" />
    <glyph glyph-name="FLW253" unicode="&#xfd;" 
d="M174 484h-144v110h180v-60h-36v-50zM210 0h-180v103h144v-43h36v-60zM310 534h-49v60h67q59 0 86 -8q40 -13 40 -52v-474q0 -44 -45 -55q-23 -5 -81 -5h-67v60h49v196h-49v58h49v220zM210 313v-58h-53v58h53z" />
    <glyph glyph-name="FLW253" unicode="&#x44d;" 
d="M174 484h-144v110h180v-60h-36v-50zM210 0h-180v103h144v-43h36v-60zM310 534h-49v60h67q59 0 86 -8q40 -13 40 -52v-474q0 -44 -45 -55q-23 -5 -81 -5h-67v60h49v196h-49v58h49v220zM210 313v-58h-53v58h53z" />
    <glyph glyph-name="FLW254" unicode="&#xfe;" horiz-adv-x="699" 
d="M669 534v-474q0 -20 -10.5 -32t-28 -18t-40.5 -8t-48 -2h-64v60h47v474h-47v60h64q66 0 90 -8q37 -13 37 -52zM436 60v-60h-65q-126 0 -126 60v474q0 21 9.5 33t26.5 18t40 7.5t50 1.5h65v-58h-47v-476h47zM174 257v-257h-144v595h144v-280h30v-58h-30z" />
    <glyph glyph-name="FLW254" unicode="&#x44e;" horiz-adv-x="699" 
d="M669 534v-474q0 -20 -10.5 -32t-28 -18t-40.5 -8t-48 -2h-64v60h47v474h-47v60h64q66 0 90 -8q37 -13 37 -52zM436 60v-60h-65q-126 0 -126 60v474q0 21 9.5 33t26.5 18t40 7.5t50 1.5h65v-58h-47v-476h47zM174 257v-257h-144v595h144v-280h30v-58h-30z" />
    <glyph glyph-name="FLW255" unicode="&#xff;" 
d="M30 326v208q0 60 126 60h70v-60h-52v-208h136v208h-44v60h188v-594h-144v288h-118q-162 0 -162 38zM178 0h-137l103 252h137z" />
    <glyph glyph-name="FLW255" unicode="&#x44f;" 
d="M30 326v208q0 60 126 60h70v-60h-52v-208h136v208h-44v60h188v-594h-144v288h-118q-162 0 -162 38zM178 0h-137l103 252h137z" />
  </font>
</defs>
</svg>
