<?xml version="1.0" encoding="UTF-8" standalone="no"?>
<svg
   xmlns:dc="http://purl.org/dc/elements/1.1/"
   xmlns:cc="http://creativecommons.org/ns#"
   xmlns:rdf="http://www.w3.org/1999/02/22-rdf-syntax-ns#"
   xmlns:svg="http://www.w3.org/2000/svg"
   xmlns="http://www.w3.org/2000/svg"
   version="1.1"
   id="svg2"
   viewBox="0 0 3543.3071 3543.3071"
   height="1000mm"
   width="1000mm">
  <defs
     id="defs4" />
  <metadata
     id="metadata7">
    <rdf:RDF>
      <cc:Work
         rdf:about="">
        <dc:format>image/svg+xml</dc:format>
        <dc:type
           rdf:resource="http://purl.org/dc/dcmitype/StillImage" />
        <dc:title></dc:title>
      </cc:Work>
    </rdf:RDF>
  </metadata>
  <g
     transform="translate(0,2490.9449)"
     id="layer1">
    <g
       style="fill:#000000"
       transform="matrix(13.508667,0,0,13.508667,-34840.814,-8836.9861)"
       id="g3355">
      <path
         id="path3369"
         d="m 2725.0079,646.1781 c 2.7053,-2.90835 5.1897,-5.01698 5.5208,-4.68585 0.3311,0.33112 0.3615,0.74267 0.068,0.91455 -0.294,0.17187 -2.7784,2.28051 -5.5208,4.68585 l -4.9863,4.37335 4.9188,-5.2879 z m -103.7202,-1.66696 c -0.4532,-0.73324 -0.5559,-1.60125 -0.2282,-1.92891 0.3277,-0.32767 0.9288,0.27226 1.3359,1.33316 0.8453,2.20263 0.1249,2.59007 -1.1077,0.59575 z m 44.4264,-1.04379 c 0,-1.29805 2.3778,-3.17716 3.0821,-2.43572 0.2287,0.24072 -0.3713,1.16297 -1.3332,2.04945 -0.9619,0.88648 -1.7489,1.06031 -1.7489,0.38627 z m 10,-1.37305 c -1.0312,-0.66644 -1.3125,-1.21172 -0.625,-1.21172 0.6875,0 2.0938,0.54528 3.125,1.21172 1.0313,0.66644 1.3125,1.21172 0.625,1.21172 -0.6875,0 -2.0937,-0.54528 -3.125,-1.21172 z m -56.7946,-1.61641 c 0.4694,-1.23278 1.1683,-1.92653 1.5532,-1.54167 0.3848,0.38486 8e-4,1.3935 -0.8535,2.24141 -1.2345,1.22534 -1.3781,1.08176 -0.6997,-0.69974 z m 107.4196,-0.88359 c 1.2444,-1.375 2.5437,-2.5 2.8875,-2.5 0.3437,0 -0.3931,1.125 -1.6375,2.5 -1.2444,1.375 -2.5437,2.5 -2.8875,2.5 -0.3437,0 0.3931,-1.125 1.6375,-2.5 z m -142.7845,-16.25 c 0,-3.09375 0.2437,-4.35938 0.5417,-2.8125 0.2979,1.54687 0.2979,4.07812 0,5.625 -0.298,1.54687 -0.5417,0.28125 -0.5417,-2.8125 z m 46.25,0 c 0,-3.09375 0.2437,-4.35938 0.5417,-2.8125 0.2979,1.54687 0.2979,4.07812 0,5.625 -0.298,1.54687 -0.5417,0.28125 -0.5417,-2.8125 z m 62.8649,2.86641 c -0.6784,-1.7815 -0.5348,-1.92508 0.6997,-0.69974 0.8543,0.84791 1.2383,1.85655 0.8535,2.24141 -0.3849,0.38486 -1.0838,-0.30889 -1.5532,-1.54167 z m 27.8852,-0.0539 c -1.5549,-1.98257 -1.5107,-2.02678 0.4719,-0.47194 2.0822,1.63296 2.7444,2.65944 1.7156,2.65944 -0.2596,0 -1.244,-0.98438 -2.1875,-2.1875 z m -73.676,-3.10889 c 2.3592,-2.56639 4.5623,-4.39333 4.8958,-4.05989 0.3334,0.33346 0.3691,0.7469 0.079,0.91878 -0.2899,0.17187 -2.493,1.99882 -4.8958,4.05988 l -4.3688,3.74738 4.2896,-4.66615 z m -46.841,-1.03677 c -0.4532,-0.73324 -0.5559,-1.60125 -0.2282,-1.92891 0.3277,-0.32767 0.9288,0.27226 1.3359,1.33316 0.8453,2.20263 0.1249,2.59007 -1.1077,0.59575 z m 89.5251,-0.43767 c -0.054,-1.31771 0.2411,-2.05599 0.6565,-1.64063 0.4154,0.41537 0.4598,1.49349 0.099,2.39583 -0.399,0.99717 -0.6952,0.70097 -0.7552,-0.7552 z m -70.7751,-0.81233 c -0.4532,-0.73324 -0.5559,-1.60125 -0.2282,-1.92891 0.3277,-0.32767 0.9288,0.27226 1.3359,1.33316 0.8453,2.20263 0.1249,2.59007 -1.1077,0.59575 z m -21.1182,-2.78325 c 0.4694,-1.23278 1.1683,-1.92653 1.5532,-1.54167 0.3848,0.38486 8e-4,1.3935 -0.8535,2.24141 -1.2345,1.22534 -1.3781,1.08176 -0.6997,-0.69974 z m 95.6433,-2.65442 c -0.054,-1.31771 0.2411,-2.05599 0.6565,-1.64063 0.4154,0.41537 0.4598,1.49349 0.099,2.39583 -0.399,0.99717 -0.6952,0.70097 -0.7552,-0.7552 z m 5.2886,-16.35417 c -0.01,-4.125 0.2206,-5.9632 0.5059,-4.08489 0.2852,1.87832 0.2909,5.25332 0.013,7.5 -0.2782,2.24669 -0.5115,0.70989 -0.5186,-3.41511 z m 3.75,0 c -0.01,-4.125 0.2206,-5.9632 0.5059,-4.08489 0.2852,1.87832 0.2909,5.25332 0.013,7.5 -0.2782,2.24669 -0.5115,0.70989 -0.5186,-3.41511 z m 68.2773,1.57861 c 2.3592,-2.56639 4.5623,-4.39333 4.8958,-4.05989 0.3334,0.33346 0.3691,0.7469 0.079,0.91878 -0.2898,0.17187 -2.493,1.99882 -4.8958,4.05988 l -4.3687,3.74738 4.2895,-4.66615 z m -35.4592,1.17998 c 0.4694,-1.23278 1.1683,-1.92653 1.5532,-1.54167 0.3849,0.38486 8e-4,1.3935 -0.8535,2.24141 -1.2345,1.22534 -1.3781,1.08176 -0.6997,-0.69974 z m -131.3818,-2.21675 c -0.4532,-0.73324 -0.5559,-1.60125 -0.2282,-1.92891 0.3277,-0.32767 0.9288,0.27226 1.3359,1.33316 0.8453,2.20263 0.1249,2.59007 -1.1077,0.59575 z m 34.4264,0.8419 c 0,-0.2702 0.873,-0.82626 1.9399,-1.23569 1.1124,-0.42687 1.6142,-0.21731 1.1763,0.49127 -0.7341,1.18775 -3.1162,1.75681 -3.1162,0.74442 z m -49.4264,-2.0919 c -0.4532,-0.73324 -0.5559,-1.60125 -0.2282,-1.92891 0.3277,-0.32767 0.9288,0.27226 1.3359,1.33316 0.8453,2.20263 0.1249,2.59007 -1.1077,0.59575 z m 120.134,-1.03321 c -0.3254,-0.52651 0.4958,-0.87718 1.8249,-0.77926 3.323,0.24481 4.1534,1.33078 1.1885,1.55412 -1.332,0.10034 -2.688,-0.24835 -3.0134,-0.77486 z m -107.5022,-1.75004 c 0.4694,-1.23278 1.1683,-1.92653 1.5532,-1.54167 0.3848,0.38486 8e-4,1.3935 -0.8535,2.24141 -1.2345,1.22534 -1.3781,1.08176 -0.6997,-0.69974 z m 24.2946,-0.25859 c 0.8559,-1.03125 1.8374,-1.875 2.1811,-1.875 0.3438,0 -0.075,0.84375 -0.9311,1.875 -0.8559,1.03125 -1.8374,1.875 -2.1811,1.875 -0.3438,0 0.075,-0.84375 0.9311,-1.875 z m -7.6594,-1.5625 c -1.5549,-1.98257 -1.5107,-2.02678 0.4719,-0.47194 1.2031,0.94355 2.1875,1.92793 2.1875,2.1875 0,1.02879 -1.0265,0.36662 -2.6594,-1.71556 z m -34.4038,-20.3125 c 0,-5.84375 0.2153,-8.23438 0.4785,-5.3125 0.2631,2.92187 0.2631,7.70312 0,10.625 -0.2632,2.92187 -0.4785,0.53125 -0.4785,-5.3125 z m 7.0475,2.24452 c -0.3351,-4.60926 -0.1569,-7.92562 0.396,-7.36968 0.5529,0.55594 0.8271,4.32715 0.6093,8.38048 l -0.396,7.36968 -0.6093,-8.38048 z m 25.2887,-8.33508 c -0.2563,-15.69083 -0.4071,-16.61458 -2.4605,-15.06846 -2.075,1.56237 -2.0765,1.52584 -0.03,-0.71004 1.1868,-1.29642 2.4693,-2.04563 2.85,-1.6649 0.3807,0.38073 0.517,8.22225 0.3027,17.4256 l -0.3895,16.73336 -0.2729,-16.71556 z m 53.9667,-0.15944 c 0,-9.28125 0.1967,-13.07813 0.4372,-8.4375 0.2405,4.64062 0.2405,12.23437 0,16.875 -0.2405,4.64062 -0.4372,0.84375 -0.4372,-8.4375 z m 7.5,0 c 0,-9.28125 0.1967,-13.07813 0.4372,-8.4375 0.2405,4.64062 0.2405,12.23437 0,16.875 -0.2405,4.64062 -0.4372,0.84375 -0.4372,-8.4375 z m 97.5,0 c 0,-9.28125 0.1967,-13.07813 0.4372,-8.4375 0.2406,4.64062 0.2406,12.23437 0,16.875 -0.2405,4.64062 -0.4372,0.84375 -0.4372,-8.4375 z m 37.5,0 c 0,-9.28125 0.1967,-13.07813 0.4372,-8.4375 0.2406,4.64062 0.2406,12.23437 0,16.875 -0.2405,4.64062 -0.4372,0.84375 -0.4372,-8.4375 z m 7.5,0 c 0,-9.28125 0.1967,-13.07813 0.4372,-8.4375 0.2406,4.64062 0.2406,12.23437 0,16.875 -0.2405,4.64062 -0.4372,0.84375 -0.4372,-8.4375 z m -217.9897,4.375 c 0.8559,-1.03125 1.8374,-1.875 2.1811,-1.875 0.3438,0 -0.075,0.84375 -0.9311,1.875 -0.8559,1.03125 -1.8374,1.875 -2.1811,1.875 -0.3438,0 0.075,-0.84375 0.9311,-1.875 z m 228.9937,-3.75 c -0.026,-2.0625 0.2338,-3.05758 0.5762,-2.21129 0.3424,0.84629 0.3633,2.53379 0.046,3.75 -0.317,1.21621 -0.5971,0.52379 -0.6226,-1.53871 z m -69.686,-0.73392 c -0.4619,-0.7474 -0.3344,-1.86436 0.2834,-2.48214 0.6643,-0.6643 1.1232,-0.10909 1.1232,1.35892 0,2.84028 -0.2313,3.02496 -1.4066,1.12322 z m 34.4423,-3.01608 c 2.3322,-2.40625 4.5217,-4.375 4.8654,-4.375 0.3438,0 -1.2832,1.96875 -3.6154,4.375 -2.3322,2.40625 -4.5217,4.375 -4.8654,4.375 -0.3438,0 1.2832,-1.96875 3.6154,-4.375 z m -13.3398,-5 c -0.01,-4.8125 0.2158,-6.93442 0.492,-4.71538 0.2761,2.21904 0.2806,6.15654 0.01,8.75 -0.2705,2.59346 -0.4965,0.77788 -0.502,-4.03462 z m -195.5696,3.4375 c -1.5549,-1.98257 -1.5107,-2.02678 0.4719,-0.47194 2.0822,1.63296 2.7443,2.65944 1.7156,2.65944 -0.2596,0 -1.244,-0.98438 -2.1875,-2.1875 z m 12.1632,1.14583 c -0.3541,-0.57291 0.1504,-1.04166 1.1212,-1.04166 0.9708,0 1.4753,0.46875 1.1212,1.04166 -0.354,0.57292 -0.8586,1.04167 -1.1212,1.04167 -0.2626,0 -0.7672,-0.46875 -1.1212,-1.04167 z m -15.4386,-8.33333 c -0.014,-2.75 0.2308,-4.02218 0.5437,-2.82707 0.3128,1.19511 0.3242,3.44511 0.025,5 -0.299,1.55489 -0.555,0.57707 -0.5689,-2.17293 z m 4.5254,-1.5625 c -1.5549,-1.98257 -1.5107,-2.02678 0.4719,-0.47194 1.2031,0.94355 2.1875,1.92793 2.1875,2.1875 0,1.02879 -1.0265,0.36662 -2.6594,-1.71556 z"
         style="fill:#000000" />
      <path
         id="path3367"
         d="m 2673.4578,647.7193 c -0.026,-2.0625 0.2338,-3.05758 0.5762,-2.21129 0.3424,0.84629 0.3633,2.53379 0.046,3.75 -0.3169,1.21621 -0.597,0.52379 -0.6225,-1.53871 z m 0,-7.5 c -0.026,-2.0625 0.2338,-3.05758 0.5762,-2.21129 0.3424,0.84629 0.3633,2.53379 0.046,3.75 -0.3169,1.21621 -0.597,0.52379 -0.6225,-1.53871 z m -86.1532,-16.875 c 0,-3.09375 0.2437,-4.35938 0.5417,-2.8125 0.2979,1.54687 0.2979,4.07812 0,5.625 -0.298,1.54687 -0.5417,0.28125 -0.5417,-2.8125 z m 46.25,0 c 0,-3.09375 0.2437,-4.35938 0.5417,-2.8125 0.2979,1.54687 0.2979,4.07812 0,5.625 -0.298,1.54687 -0.5417,0.28125 -0.5417,-2.8125 z m 70.0468,-1.875 c -0.01,-4.125 0.2206,-5.9632 0.5059,-4.08489 0.2852,1.87832 0.2909,5.25332 0.013,7.5 -0.2782,2.24669 -0.5115,0.70989 -0.5186,-3.41511 z m -60.1436,-3.75 c -0.026,-2.0625 0.2338,-3.05758 0.5762,-2.21129 0.3424,0.84629 0.3633,2.53379 0.046,3.75 -0.3169,1.21621 -0.597,0.52379 -0.6225,-1.53871 z m 123.75,-22.5 c -0.026,-2.0625 0.2338,-3.05758 0.5762,-2.21129 0.3424,0.84629 0.3633,2.53379 0.046,3.75 -0.317,1.21621 -0.5971,0.52379 -0.6226,-1.53871 z m 28.5063,-27.5 c 1.6147,-1.71875 3.217,-3.125 3.5608,-3.125 0.3437,0 -0.6961,1.40625 -2.3108,3.125 -1.6147,1.71875 -3.217,3.125 -3.5608,3.125 -0.3437,0 0.6961,-1.40625 2.3108,-3.125 z m -189.375,-0.625 c 1.2444,-1.375 2.5437,-2.5 2.8875,-2.5 0.3437,0 -0.3931,1.125 -1.6375,2.5 -1.2444,1.375 -2.5437,2.5 -2.8875,2.5 -0.3437,0 0.3931,-1.125 1.6375,-2.5 z m 73.3687,-13.125 c -0.026,-2.0625 0.2338,-3.05758 0.5762,-2.21129 0.3424,0.84629 0.3633,2.53379 0.046,3.75 -0.3169,1.21621 -0.597,0.52379 -0.6225,-1.53871 z"
         style="fill:#000000" />
      <path
         id="path3365"
         d="m 2654.8514,643.9693 c -0.01,-4.125 0.2206,-5.9632 0.5059,-4.08489 0.2852,1.87832 0.2909,5.25332 0.013,7.5 -0.2782,2.24669 -0.5115,0.70989 -0.5186,-3.41511 z m 56.25,0 c -0.01,-4.125 0.2206,-5.9632 0.5059,-4.08489 0.2852,1.87832 0.2909,5.25332 0.013,7.5 -0.2782,2.24669 -0.5115,0.70989 -0.5186,-3.41511 z m 31.25,0 c -0.01,-4.125 0.2206,-5.9632 0.5059,-4.08489 0.2852,1.87832 0.2909,5.25332 0.013,7.5 -0.2782,2.24669 -0.5115,0.70989 -0.5186,-3.41511 z m -80.3873,-45.13456 c 0,-3.93641 0.3894,-6.76774 0.8653,-6.29184 1.2049,1.20488 1.2957,12.11339 0.1069,12.84807 -0.5347,0.33048 -0.9722,-2.61983 -0.9722,-6.55623 z m 72.1667,-1.89555 c 0.8479,-0.85427 1.8565,-1.23834 2.2414,-0.85348 0.3848,0.38486 -0.3089,1.08381 -1.5417,1.55322 -1.7815,0.67836 -1.9251,0.53478 -0.6997,-0.69974 z m 15.577,-16.71989 c -0.026,-2.0625 0.2338,-3.05758 0.5762,-2.21129 0.3424,0.84629 0.3633,2.53379 0.046,3.75 -0.317,1.21621 -0.5971,0.52379 -0.6226,-1.53871 z m 90.246,-13.125 c 0,-9.28125 0.1967,-13.07813 0.4372,-8.4375 0.2406,4.64062 0.2406,12.23437 0,16.875 -0.2405,4.64062 -0.4372,0.84375 -0.4372,-8.4375 z m -55.4897,-1.32826 c 0,-0.34375 3.375,-3.96478 7.5,-8.04674 4.125,-4.08196 7.5,-7.14049 7.5,-6.79674 0,0.34375 -3.375,3.96478 -7.5,8.04674 -4.125,4.08196 -7.5,7.14049 -7.5,6.79674 z m -34.7563,-11.79674 c -0.026,-2.0625 0.2338,-3.05758 0.5762,-2.21129 0.3424,0.84629 0.3633,2.53379 0.046,3.75 -0.317,1.21621 -0.5971,0.52379 -0.6226,-1.53871 z"
         style="fill:#000000" />
      <path
         id="path3363"
         d="m 2600.9495,643.9693 c -0.016,-5.69294 0.2219,-6.69717 0.9857,-4.16795 0.5535,1.83262 0.5627,5.20762 0.021,7.5 -0.8378,3.54241 -0.9888,3.04233 -1.0062,-3.33205 z m 32.6519,0 c -0.01,-4.125 0.2206,-5.9632 0.5059,-4.08489 0.2852,1.87832 0.2909,5.25332 0.013,7.5 -0.2782,2.24669 -0.5115,0.70989 -0.5186,-3.41511 z m 56.25,0 c -0.01,-4.125 0.2206,-5.9632 0.5059,-4.08489 0.2852,1.87832 0.2909,5.25332 0.013,7.5 -0.2782,2.24669 -0.5115,0.70989 -0.5186,-3.41511 z m 12.5,0 c -0.01,-4.125 0.2206,-5.9632 0.5059,-4.08489 0.2852,1.87832 0.2909,5.25332 0.013,7.5 -0.2782,2.24669 -0.5115,0.70989 -0.5186,-3.41511 z m 24.8101,4.375 c 0,-1.71875 0.2837,-2.42188 0.6305,-1.5625 0.3467,0.85937 0.3467,2.26562 0,3.125 -0.3468,0.85937 -0.6305,0.15625 -0.6305,-1.5625 z m -146.3487,-4.27083 c -0.054,-1.31771 0.2411,-2.05599 0.6565,-1.64063 0.4154,0.41537 0.4598,1.49349 0.099,2.39583 -0.399,0.99717 -0.6952,0.70097 -0.7552,-0.7552 z m 141.0028,-4.20594 c -0.4118,-2.48403 -0.2284,-3.65014 0.4651,-2.95667 0.6298,0.6298 0.9358,2.4756 0.68,4.10177 -0.3936,2.5021 -0.5697,2.32605 -1.1451,-1.1451 z M 2614.4641,621.4693 c 0,-4.01042 0.353,-6.93864 0.7845,-6.50716 0.9379,0.93785 0.8375,12.17679 -0.1172,13.13154 -0.367,0.36701 -0.6673,-2.61396 -0.6673,-6.62438 z m 36.54,3.125 c 0,-2.40625 0.2572,-3.39063 0.5717,-2.1875 0.3144,1.20312 0.3144,3.17187 0,4.375 -0.3145,1.20312 -0.5717,0.21875 -0.5717,-2.1875 z m 23.8473,-3.125 c -0.01,-4.125 0.2206,-5.9632 0.5059,-4.08489 0.2852,1.87832 0.2909,5.25332 0.013,7.5 -0.2782,2.24669 -0.5115,0.70989 -0.5186,-3.41511 z m 63.75,0 c -0.01,-4.125 0.2206,-5.9632 0.5059,-4.08489 0.2852,1.87832 0.2909,5.25332 0.013,7.5 -0.2782,2.24669 -0.5115,0.70989 -0.5186,-3.41511 z m -82.6899,-4.375 c 0,-1.71875 0.2837,-2.42188 0.6305,-1.5625 0.3467,0.85937 0.3467,2.26562 0,3.125 -0.3468,0.85937 -0.6305,0.15625 -0.6305,-1.5625 z m -5.0987,-0.52083 c -0.054,-1.31771 0.2411,-2.05599 0.6565,-1.64063 0.4154,0.41537 0.4598,1.49349 0.099,2.39583 -0.399,0.99717 -0.6952,0.70097 -0.7552,-0.7552 z m -66.3487,-17.60417 c 0,-4.01042 0.353,-6.93864 0.7845,-6.50716 0.9379,0.93785 0.8375,12.17679 -0.1172,13.13154 -0.367,0.36701 -0.6673,-2.61396 -0.6673,-6.62438 z m 31.54,3.125 c 0,-2.40625 0.2572,-3.39063 0.5717,-2.1875 0.3144,1.20312 0.3144,3.17187 0,4.375 -0.3145,1.20312 -0.5717,0.21875 -0.5717,-2.1875 z m 13.2632,-3.1267 c -0.2355,-3.78219 -0.01,-6.87594 0.5093,-6.875 0.5156,9.3e-4 0.9375,3.09545 0.9375,6.8767 0,8.87327 -0.8943,8.87222 -1.4468,-0.002 z m 87.6968,0.002 c 0,-4.01042 0.3003,-6.99139 0.6673,-6.62438 0.9547,0.95475 1.0551,12.19369 0.1172,13.13154 -0.4315,0.43148 -0.7845,-2.49674 -0.7845,-6.50716 z m 57.79,3.125 c 0,-2.40625 0.2573,-3.39063 0.5717,-2.1875 0.3144,1.20312 0.3144,3.17187 0,4.375 -0.3144,1.20312 -0.5717,0.21875 -0.5717,-2.1875 z m -153.4062,-1.23568 c -0.4379,-0.70858 0.064,-0.91814 1.1763,-0.49127 2.1655,0.83099 2.5617,1.72695 0.7637,1.72695 -0.647,0 -1.5199,-0.55606 -1.94,-1.23568 z m -5.5351,-6.78515 c -0.054,-1.31771 0.2411,-2.05599 0.6565,-1.64063 0.4154,0.41537 0.4598,1.49349 0.099,2.39583 -0.399,0.99717 -0.6952,0.70097 -0.7552,-0.7552 z m 158.75,0 c -0.054,-1.31771 0.2411,-2.05599 0.6565,-1.64063 0.4154,0.41537 0.4598,1.49349 0.099,2.39583 -0.399,0.99717 -0.6952,0.70097 -0.7552,-0.7552 z m 25.3298,-20.10417 c 0,-5.5 0.2243,-7.59451 0.4884,-4.65446 0.264,2.94005 0.2603,7.44005 -0.01,10 -0.2681,2.55995 -0.4841,0.15446 -0.4796,-5.34554 z m -0.1132,-18.75 c -0.014,-2.75 0.2307,-4.02218 0.5436,-2.82707 0.3129,1.19511 0.3242,3.44511 0.025,5 -0.299,1.55489 -0.555,0.57707 -0.5689,-2.17293 z"
         style="fill:#000000" />
      <path
         id="path3361"
         d="m 2598.6014,643.9693 c -0.01,-4.125 0.2206,-5.9632 0.5059,-4.08489 0.2852,1.87832 0.2909,5.25332 0.013,7.5 -0.2782,2.24669 -0.5115,0.70989 -0.5186,-3.41511 z m 8.75,0 c -0.01,-4.125 0.2206,-5.9632 0.5059,-4.08489 0.2852,1.87832 0.2909,5.25332 0.013,7.5 -0.2782,2.24669 -0.5115,0.70989 -0.5186,-3.41511 z m 2.5,0 c -0.01,-4.125 0.2206,-5.9632 0.5059,-4.08489 0.2852,1.87832 0.2909,5.25332 0.013,7.5 -0.2782,2.24669 -0.5115,0.70989 -0.5186,-3.41511 z m 26.25,0 c -0.01,-4.125 0.2206,-5.9632 0.5059,-4.08489 0.2852,1.87832 0.2909,5.25332 0.013,7.5 -0.2782,2.24669 -0.5115,0.70989 -0.5186,-3.41511 z m 51.25,0 c -0.01,-4.125 0.2206,-5.9632 0.5059,-4.08489 0.2852,1.87832 0.2909,5.25332 0.013,7.5 -0.2782,2.24669 -0.5115,0.70989 -0.5186,-3.41511 z m 17.5,0 c -0.01,-4.125 0.2206,-5.9632 0.5059,-4.08489 0.2852,1.87832 0.2909,5.25332 0.013,7.5 -0.2782,2.24669 -0.5115,0.70989 -0.5186,-3.41511 z m 15,0 c -0.01,-4.125 0.2206,-5.9632 0.5059,-4.08489 0.2852,1.87832 0.2909,5.25332 0.013,7.5 -0.2782,2.24669 -0.5115,0.70989 -0.5186,-3.41511 z m 9.9027,3.125 c 0,-2.40625 0.2573,-3.39063 0.5717,-2.1875 0.3144,1.20312 0.3144,3.17187 0,4.375 -0.3144,1.20312 -0.5717,0.21875 -0.5717,-2.1875 z m -111.54,-4.24126 c 0,-0.2702 0.873,-0.82626 1.9399,-1.23569 1.1124,-0.42687 1.6142,-0.21731 1.1763,0.49127 -0.7341,1.18775 -3.1162,1.75681 -3.1162,0.74442 z m 111.3487,-3.77957 c -0.054,-1.31771 0.2411,-2.05599 0.6565,-1.64063 0.4154,0.41537 0.4598,1.49349 0.099,2.39583 -0.399,0.99717 -0.6952,0.70097 -0.7552,-0.7552 z M 2612.3514,621.4693 c -0.01,-4.125 0.2206,-5.9632 0.5059,-4.08489 0.2852,1.87832 0.2909,5.25332 0.013,7.5 -0.2782,2.24669 -0.5115,0.70989 -0.5186,-3.41511 z m 36.0601,4.375 c 0,-1.71875 0.2837,-2.42188 0.6305,-1.5625 0.3467,0.85937 0.3467,2.26562 0,3.125 -0.3468,0.85937 -0.6305,0.15625 -0.6305,-1.5625 z m 15.1899,-4.375 c -0.01,-4.125 0.2206,-5.9632 0.5059,-4.08489 0.2852,1.87832 0.2909,5.25332 0.013,7.5 -0.2782,2.24669 -0.5115,0.70989 -0.5186,-3.41511 z m 2.5,0 c -0.01,-4.125 0.2206,-5.9632 0.5059,-4.08489 0.2852,1.87832 0.2909,5.25332 0.013,7.5 -0.2782,2.24669 -0.5115,0.70989 -0.5186,-3.41511 z m 6.25,0 c -0.01,-4.125 0.2206,-5.9632 0.5059,-4.08489 0.2852,1.87832 0.2909,5.25332 0.013,7.5 -0.2782,2.24669 -0.5115,0.70989 -0.5186,-3.41511 z m 68.75,0 c -0.01,-4.125 0.2206,-5.9632 0.5059,-4.08489 0.2852,1.87832 0.2909,5.25332 0.013,7.5 -0.2782,2.24669 -0.5115,0.70989 -0.5186,-3.41511 z m -144.1373,-1.11626 c 0,-0.2702 0.873,-0.82626 1.9399,-1.23569 1.1124,-0.42687 1.6142,-0.21731 1.1763,0.49127 -0.7341,1.18775 -3.1162,1.75681 -3.1162,0.74442 z m 61.3487,-3.77957 c -0.054,-1.31771 0.2411,-2.05599 0.6565,-1.64063 0.4154,0.41537 0.4598,1.49349 0.099,2.39583 -0.399,0.99717 -0.6952,0.70097 -0.7552,-0.7552 z m -75.9614,-17.60417 c -0.01,-4.125 0.2206,-5.9632 0.5059,-4.08489 0.2852,1.87832 0.2909,5.25332 0.013,7.5 -0.2782,2.24669 -0.5115,0.70989 -0.5186,-3.41511 z m 36.2138,3.74925 c 0.1,-2.06291 -0.3273,-4.59416 -0.9496,-5.625 -0.9399,-1.55703 -0.8069,-1.61163 0.7861,-0.3226 1.0546,0.85341 2.2312,1.23787 2.6147,0.85434 0.3836,-0.38352 1.0767,-0.0835 1.5404,0.66682 0.4637,0.75027 0.1295,1.20957 -0.7428,1.02066 -0.8722,-0.18891 -2.001,1.34403 -2.5083,3.40653 l -0.9223,3.75 0.1818,-3.75075 z m 8.6889,-0.62425 c 0,-2.40625 0.2572,-3.39063 0.5717,-2.1875 0.3144,1.20312 0.3144,3.17187 0,4.375 -0.3145,1.20312 -0.5717,0.21875 -0.5717,-2.1875 z m 87.0081,0.3125 c -0.2671,-1.89063 -0.1163,-5.125 0.3352,-7.1875 0.6276,-2.86675 0.8558,-2.05711 0.9688,3.4375 0.1567,7.61332 -0.4939,9.4841 -1.304,3.75 z m 57.8993,0.9375 c 0,-1.71875 0.2837,-2.42188 0.6305,-1.5625 0.3467,0.85937 0.3467,2.26562 0,3.125 -0.3468,0.85937 -0.6305,0.15625 -0.6305,-1.5625 z m -120.0987,-4.27083 c -0.054,-1.31771 0.2411,-2.05599 0.6565,-1.64063 0.4154,0.41537 0.4598,1.49349 0.099,2.39583 -0.399,0.99717 -0.6952,0.70097 -0.7552,-0.7552 z m -51.3487,-1.22043 c 0,-0.2702 0.873,-0.82626 1.9399,-1.23569 1.1124,-0.42687 1.6142,-0.21731 1.1763,0.49127 -0.7341,1.18775 -3.1162,1.75681 -3.1162,0.74442 z m 175,-14.58096 c 0,-0.34375 3.6563,-4.24875 8.125,-8.67778 4.4688,-4.42903 8.125,-7.77153 8.125,-7.42778 0,0.34375 -3.6562,4.24875 -8.125,8.67778 -4.4687,4.42903 -8.125,7.77153 -8.125,7.42778 z m 17.8746,-6.17778 c 0,-3.78125 0.2343,-5.32813 0.5207,-3.4375 0.2864,1.89062 0.2864,4.98437 0,6.875 -0.2864,1.89062 -0.5207,0.34375 -0.5207,-3.4375 z m 28.6191,-9.375 c -0.026,-2.0625 0.2338,-3.05758 0.5762,-2.21129 0.3424,0.84629 0.3633,2.53379 0.046,3.75 -0.317,1.21621 -0.5971,0.52379 -0.6226,-1.53871 z m -72.5,-1.25 c -0.026,-2.0625 0.2338,-3.05758 0.5762,-2.21129 0.3424,0.84629 0.3633,2.53379 0.046,3.75 -0.317,1.21621 -0.5971,0.52379 -0.6226,-1.53871 z m -146.4937,-5 c 0.8559,-1.03125 1.8374,-1.875 2.1811,-1.875 0.3438,0 -0.075,0.84375 -0.9311,1.875 -0.8559,1.03125 -1.8374,1.875 -2.1811,1.875 -0.3438,0 0.075,-0.84375 0.9311,-1.875 z"
         style="fill:#000000" />
      <path
         id="path3359"
         d="m 2657.3514,643.9693 c -0.01,-4.125 0.2206,-5.9632 0.5059,-4.08489 0.2852,1.87832 0.2909,5.25332 0.013,7.5 -0.2782,2.24669 -0.5115,0.70989 -0.5186,-3.41511 z m 56.25,0 c -0.01,-4.125 0.2206,-5.9632 0.5059,-4.08489 0.2852,1.87832 0.2909,5.25332 0.013,7.5 -0.2782,2.24669 -0.5115,0.70989 -0.5186,-3.41511 z m 31.25,0 c -0.01,-4.125 0.2206,-5.9632 0.5059,-4.08489 0.2852,1.87832 0.2909,5.25332 0.013,7.5 -0.2782,2.24669 -0.5115,0.70989 -0.5186,-3.41511 z m -21.9265,3.03227 c 1.5466,-1.76976 2.5222,-3.50758 2.168,-3.86183 -0.3543,-0.35426 0.3906,-1.58049 1.6552,-2.72497 1.912,-1.73032 2.2993,-1.77142 2.2993,-0.24395 0,1.0103 -2.0102,3.68451 -4.4673,5.9427 -2.6094,2.39827 -3.2978,2.76759 -1.6552,0.88805 z m -47.707,-0.94894 c -0.3541,-0.57291 0.1504,-1.04166 1.1212,-1.04166 0.9708,0 1.4753,0.46875 1.1212,1.04166 -0.354,0.57292 -0.8586,1.04167 -1.1212,1.04167 -0.2626,0 -0.7672,-0.46875 -1.1212,-1.04167 z m -91.9051,-1.97916 c -0.054,-1.31771 0.2411,-2.05599 0.6565,-1.64063 0.4154,0.41537 0.4598,1.49349 0.099,2.39583 -0.399,0.99717 -0.6952,0.70097 -0.7552,-0.7552 z m 84.3297,0.6072 c -0.3956,-0.63999 -0.2413,-1.459 0.3429,-1.82001 0.5841,-0.36101 1.062,0.16262 1.062,1.16363 0,2.1077 -0.3941,2.29186 -1.4049,0.65638 z m -2.5,-3.75 c -0.3956,-0.63999 -0.2413,-1.459 0.3429,-1.82001 0.5841,-0.36101 1.062,0.16262 1.062,1.16363 0,2.1077 -0.3941,2.29186 -1.4049,0.65638 z m 56.2626,-14.97961 c -0.4025,-0.65121 -0.199,-1.51331 0.4522,-1.91578 0.6513,-0.40247 1.5134,-0.19895 1.9158,0.45226 0.4025,0.65121 0.199,1.51331 -0.4522,1.91578 -0.6512,0.40247 -1.5133,0.19895 -1.9158,-0.45226 z m -78.191,-0.26403 c 0,-0.34375 1.6875,-2.24173 3.75,-4.21773 2.0625,-1.976 3.75,-3.31148 3.75,-2.96773 0,0.34375 -1.6875,2.24173 -3.75,4.21773 -2.0625,1.976 -3.75,3.31148 -3.75,2.96773 z m 66.25,-1.85229 c 0,-1.03454 2.4272,-1.61957 2.9836,-0.71916 0.3611,0.58413 -0.1626,1.06205 -1.1636,1.06205 -1.001,0 -1.82,-0.1543 -1.82,-0.34289 z m 1.25,-7.5 c 0,-1.03454 2.4272,-1.61957 2.9836,-0.71916 0.3611,0.58413 -0.1626,1.06205 -1.1636,1.06205 -1.001,0 -1.82,-0.1543 -1.82,-0.34289 z m -50.8627,-17.36544 c -0.01,-4.125 0.2206,-5.9632 0.5059,-4.08489 0.2852,1.87832 0.2909,5.25332 0.013,7.5 -0.2782,2.24669 -0.5115,0.70989 -0.5186,-3.41511 z m 48.3627,3.61544 c 0,-1.03454 2.4272,-1.61957 2.9836,-0.71916 0.3611,0.58413 -0.1626,1.06205 -1.1636,1.06205 -1.001,0 -1.82,-0.1543 -1.82,-0.34289 z m 58.75,0.60229 c 0,-0.34375 1.6875,-2.24173 3.75,-4.21773 2.0625,-1.976 3.75,-3.31148 3.75,-2.96773 0,0.34375 -1.6875,2.24173 -3.75,4.21773 -2.0625,1.976 -3.75,3.31148 -3.75,2.96773 z m -89.3216,-3.50636 c -0.3956,-0.63999 -0.2413,-1.459 0.3429,-1.82001 0.5841,-0.36101 1.062,0.16262 1.062,1.16363 0,2.1077 -0.3941,2.29186 -1.4049,0.65638 z m -51.25,-2.5 c -0.3956,-0.63999 -0.2413,-1.459 0.3429,-1.82001 0.5841,-0.36101 1.062,0.16262 1.062,1.16363 0,2.1077 -0.3941,2.29186 -1.4049,0.65638 z m -8.3378,-2.27387 c -1.5549,-1.98257 -1.5107,-2.02678 0.4719,-0.47194 1.2031,0.94355 2.1875,1.92793 2.1875,2.1875 0,1.02879 -1.0265,0.36662 -2.6594,-1.71556 z m 61.4094,-0.23873 c 0,-0.72807 0.5625,-1.32377 1.25,-1.32377 0.6875,0 1.25,0.24805 1.25,0.55123 0,0.30318 -0.5625,0.89887 -1.25,1.32377 -0.6875,0.4249 -1.25,0.17684 -1.25,-0.55123 z m 73.9937,-14.44877 c -0.026,-2.0625 0.2338,-3.05758 0.5762,-2.21129 0.3424,0.84629 0.3633,2.53379 0.046,3.75 -0.317,1.21621 -0.5971,0.52379 -0.6226,-1.53871 z m 80.246,-13.125 c 0,-9.28125 0.1967,-13.07813 0.4372,-8.4375 0.2406,4.64062 0.2406,12.23437 0,16.875 -0.2405,4.64062 -0.4372,0.84375 -0.4372,-8.4375 z m -231.7397,3.125 c 0.8559,-1.03125 1.8374,-1.875 2.1811,-1.875 0.3438,0 -0.075,0.84375 -0.9311,1.875 -0.8559,1.03125 -1.8374,1.875 -2.1811,1.875 -0.3438,0 0.075,-0.84375 0.9311,-1.875 z m 190,-3.28227 c 0,-0.34375 1.6875,-2.24173 3.75,-4.21773 2.0625,-1.976 3.75,-3.31148 3.75,-2.96773 0,0.34375 -1.6875,2.24173 -3.75,4.21773 -2.0625,1.976 -3.75,3.31148 -3.75,2.96773 z m -204.4938,-5.15523 -2.3812,-2.8125 2.8125,2.38123 c 1.5469,1.30968 2.8125,2.57531 2.8125,2.8125 0,1.00032 -1.006,0.26183 -3.2438,-2.38123 z m 174.5925,-1.45833 c -0.054,-1.31771 0.2411,-2.05599 0.6565,-1.64063 0.4154,0.41537 0.4598,1.49349 0.099,2.39583 -0.399,0.99717 -0.6952,0.70098 -0.7552,-0.7552 z m -8.605,-6.35417 c -0.026,-2.0625 0.2338,-3.05758 0.5762,-2.21129 0.3424,0.84629 0.3633,2.53379 0.046,3.75 -0.317,1.21621 -0.5971,0.52379 -0.6226,-1.53871 z m -166.6531,-0.3125 c -1.5549,-1.98257 -1.5107,-2.02678 0.4719,-0.47194 1.2031,0.94355 2.1875,1.92793 2.1875,2.1875 0,1.02879 -1.0265,0.36662 -2.6594,-1.71556 z m 26.4094,-0.9375 c 0.8559,-1.03125 1.8374,-1.875 2.1811,-1.875 0.3438,0 -0.075,0.84375 -0.9311,1.875 -0.8559,1.03125 -1.8374,1.875 -2.1811,1.875 -0.3438,0 0.075,-0.84375 0.9311,-1.875 z"
         style="fill:#000000" />
      <path
         id="path3357"
         d="m 2584.0398,648.56604 c -1.1416,-1.26148 -2.0757,-3.47475 -2.0757,-4.91838 0,-2.65115 3.517,-7.20298 4.6726,-6.04741 0.3438,0.34375 -0.2857,1.53572 -1.3988,2.64881 -2.5639,2.56393 -2.552,4.18974 0.052,7.06698 1.1416,1.26147 1.7944,2.57484 1.4506,2.91859 -0.3437,0.34375 -1.559,-0.40712 -2.7006,-1.66859 z m 5.4243,0.98903 c 0,-0.66592 0.8438,-1.21077 1.875,-1.21077 1.0313,0 1.875,0.22107 1.875,0.49126 0,0.2702 -0.8437,0.81504 -1.875,1.21077 -1.0312,0.39573 -1.875,0.17466 -1.875,-0.49126 z m 10.3873,-5.58577 c -0.01,-4.125 0.2206,-5.9632 0.5059,-4.08489 0.2852,1.87832 0.2909,5.25332 0.013,7.5 -0.2782,2.24669 -0.5115,0.70989 -0.5186,-3.41511 z m 8.75,0 c -0.01,-4.125 0.2206,-5.9632 0.5059,-4.08489 0.2852,1.87832 0.2909,5.25332 0.013,7.5 -0.2782,2.24669 -0.5115,0.70989 -0.5186,-3.41511 z m 7.1127,6.30882 c 0,-1.62335 3.0503,-6.93382 3.9827,-6.93382 0.5948,0 0.2089,1.6875 -0.8577,3.75 -1.7298,3.34501 -3.125,4.7665 -3.125,3.18382 z m 9.0625,-1.22959 c -2.8993,-1.33709 -3.793,-3.20423 -1.5337,-3.20423 0.7034,0 0.3574,-1.40625 -0.7687,-3.125 -1.1262,-1.71875 -1.5611,-3.12036 -0.9664,-3.11469 0.9872,0.009 7.1383,10.16488 6.4004,10.56703 -0.1755,0.0957 -1.5847,-0.40973 -3.1316,-1.12311 z m 10.0748,-5.07923 c -0.01,-4.125 0.2206,-5.9632 0.5059,-4.08489 0.2852,1.87832 0.2909,5.25332 0.013,7.5 -0.2782,2.24669 -0.5115,0.70989 -0.5186,-3.41511 z m 14.2505,4.375 c 0.3596,-1.375 1.098,-2.5 1.641,-2.5 0.5429,0 0.693,1.125 0.3334,2.5 -0.3596,1.375 -1.098,2.5 -1.641,2.5 -0.5429,0 -0.693,-1.125 -0.3334,-2.5 z m 6.9995,-4.375 c -0.01,-4.125 0.2206,-5.9632 0.5059,-4.08489 0.2852,1.87832 0.2909,5.25332 0.013,7.5 -0.2782,2.24669 -0.5115,0.70989 -0.5186,-3.41511 z m 9.6127,3.125 c 1.4686,-2.0625 2.945,-3.75 3.2808,-3.75 0.3358,0 -0.3863,1.6875 -1.6046,3.75 -1.2184,2.0625 -2.6947,3.75 -3.2808,3.75 -0.5861,0 0.136,-1.6875 1.6046,-3.75 z m 5,-3.125 c 0,-3.78125 0.5625,-6.875 1.25,-6.875 0.6875,0 1.25,3.09375 1.25,6.875 0,3.78125 -0.5625,6.875 -1.25,6.875 -0.6875,0 -1.25,-3.09375 -1.25,-6.875 z m 6.25,3.125 c -1.4686,-2.0625 -2.1907,-3.75 -1.6046,-3.75 0.5861,0 2.0624,1.6875 3.2808,3.75 1.2183,2.0625 1.9404,3.75 1.6046,3.75 -0.3358,0 -1.8122,-1.6875 -3.2808,-3.75 z m 11.6373,-3.125 c -0.01,-4.125 0.2206,-5.9632 0.5059,-4.08489 0.2852,1.87832 0.2909,5.25332 0.013,7.5 -0.2782,2.24669 -0.5115,0.70989 -0.5186,-3.41511 z m 3.3627,5.625 c 0,-0.6875 1.125,-1.25 2.5,-1.25 1.375,0 2.5,0.5625 2.5,1.25 0,0.6875 -1.125,1.25 -2.5,1.25 -1.375,0 -2.5,-0.5625 -2.5,-1.25 z m 11.6373,-5.625 c -0.01,-4.125 0.2206,-5.9632 0.5059,-4.08489 0.2852,1.87832 0.2909,5.25332 0.013,7.5 -0.2782,2.24669 -0.5115,0.70989 -0.5186,-3.41511 z m 8.75,0 c -0.01,-4.125 0.2206,-5.9632 0.5059,-4.08489 0.2852,1.87832 0.2909,5.25332 0.013,7.5 -0.2782,2.24669 -0.5115,0.70989 -0.5186,-3.41511 z m 16.1064,3.75 c -0.026,-2.0625 0.2338,-3.05758 0.5762,-2.21129 0.3424,0.84629 0.3633,2.53379 0.046,3.75 -0.3169,1.21621 -0.597,0.52379 -0.6225,-1.53871 z m 8.1441,0.625 c 0.3596,-1.375 1.098,-2.5 1.641,-2.5 0.5429,0 0.693,1.125 0.3334,2.5 -0.3596,1.375 -1.098,2.5 -1.641,2.5 -0.5429,0 -0.693,-1.125 -0.3334,-2.5 z m 6.9995,-4.375 c -0.01,-4.125 0.2206,-5.9632 0.5059,-4.08489 0.2852,1.87832 0.2909,5.25332 0.013,7.5 -0.2782,2.24669 -0.5115,0.70989 -0.5186,-3.41511 z m -22.7227,-1.31729 c 0.1458,-5.47797 0.2526,-5.70565 0.9375,-1.99742 l 0.7729,4.18528 3.4375,-2.71351 c 4.7323,-3.73559 4.3065,-2.61474 -0.9375,2.46794 l -4.375,4.24042 0.1646,-6.18271 z m -117.6646,0.69229 c 0,-0.6875 0.5625,-1.25 1.25,-1.25 0.6875,0 1.25,0.5625 1.25,1.25 0,0.6875 -0.5625,1.25 -1.25,1.25 -0.6875,0 -1.25,-0.5625 -1.25,-1.25 z m 35,0 c 0,-0.6875 0.8438,-1.25 1.875,-1.25 1.0313,0 1.875,-0.5625 1.875,-1.25 0,-0.6875 -0.8437,-1.25 -1.875,-1.25 -1.0312,0 -1.875,-0.62268 -1.875,-1.38374 0,-0.76105 0.8898,-1.0423 1.9772,-0.625 1.0875,0.41731 2.2125,0.75874 2.5,0.75874 1.5136,0 0.2303,4.84476 -1.4544,5.49126 -2.6675,1.02361 -3.0228,0.96587 -3.0228,-0.49126 z m 11.1979,-0.68774 c -1.3276,-1.59966 -1.2504,-2.29545 0.4422,-3.98809 1.1277,-1.1277 2.4694,-1.63138 2.9814,-1.1193 0.5121,0.51208 0.1036,1.5058 -0.9077,2.20826 -1.3915,0.96648 -1.4587,1.43144 -0.2763,1.9112 1.7774,0.72119 2.1282,2.92567 0.4656,2.92567 -0.6034,0 -1.8207,-0.87198 -2.7052,-1.93774 z m 42.5521,0.68774 c 0,-0.6875 1.125,-1.25 2.5,-1.25 1.375,0 2.5,0.5625 2.5,1.25 0,0.6875 -1.125,1.25 -2.5,1.25 -1.375,0 -2.5,-0.5625 -2.5,-1.25 z m 15,0 c 0,-0.6875 0.5625,-1.25 1.25,-1.25 0.6875,0 1.25,0.5625 1.25,1.25 0,0.6875 -0.5625,1.25 -1.25,1.25 -0.6875,0 -1.25,-0.5625 -1.25,-1.25 z m 29.9479,-0.68774 c -1.3276,-1.59966 -1.2504,-2.29545 0.4422,-3.98809 1.1277,-1.1277 2.4694,-1.63138 2.9814,-1.1193 0.5121,0.51208 0.1037,1.5058 -0.9077,2.20826 -1.3915,0.96648 -1.4587,1.43144 -0.2763,1.9112 1.7774,0.72119 2.1282,2.92567 0.4656,2.92567 -0.6034,0 -1.8207,-0.87198 -2.7052,-1.93774 z m -71.8743,-3.14542 c -0.4532,-0.73324 -0.5559,-1.60125 -0.2282,-1.92891 0.3277,-0.32767 0.9288,0.27226 1.3359,1.33316 0.8453,2.20263 0.1249,2.59007 -1.1077,0.59575 z m 12.7244,-0.54184 c 0.3957,-1.03125 1.2041,-1.875 1.7965,-1.875 0.5924,0 0.7533,0.84375 0.3575,1.875 -0.3957,1.03125 -1.2041,1.875 -1.7965,1.875 -0.5924,0 -0.7533,-0.84375 -0.3575,-1.875 z m -88.298,-0.58577 c 0,-0.66592 0.8438,-0.88699 1.875,-0.49126 1.0313,0.39573 1.875,0.94057 1.875,1.21077 0,0.27019 -0.8437,0.49126 -1.875,0.49126 -1.0312,0 -1.875,-0.54485 -1.875,-1.21077 z m 102.5,-0.0392 c 0,-0.6875 1.125,-1.25 2.5,-1.25 1.375,0 2.5,0.5625 2.5,1.25 0,0.6875 -1.125,1.25 -2.5,1.25 -1.375,0 -2.5,-0.5625 -2.5,-1.25 z m -107.5,-15 c 0,-2.75 0.5625,-5 1.25,-5 0.6875,0 1.25,2.25 1.25,5 0,2.75 -0.5625,5 -1.25,5 -0.6875,0 -1.25,-2.25 -1.25,-5 z m 10,4.43382 c 0,-1.62335 3.0503,-6.93382 3.9827,-6.93382 0.5948,0 0.2089,1.6875 -0.8577,3.75 -1.7298,3.34501 -3.125,4.7665 -3.125,3.18382 z m 9.0625,-1.22959 c -2.8993,-1.33709 -3.793,-3.20423 -1.5337,-3.20423 0.7034,0 0.3574,-1.40625 -0.7687,-3.125 -1.1262,-1.71875 -1.5611,-3.12036 -0.9664,-3.11469 0.9872,0.009 7.1383,10.16488 6.4004,10.56703 -0.1755,0.0957 -1.5847,-0.40973 -3.1316,-1.12311 z m 10.0748,-5.07923 c -0.01,-4.125 0.2206,-5.9632 0.5059,-4.08489 0.2852,1.87832 0.2909,5.25332 0.013,7.5 -0.2782,2.24669 -0.5115,0.70989 -0.5186,-3.41511 z m 5.4601,3.6686 c -1.2527,-1.72031 -2.0965,-3.64878 -1.875,-4.28548 0.2214,-0.6367 1.6734,0.7885 3.2266,3.16712 3.2225,4.93514 2.1025,5.86188 -1.3516,1.11836 z m 11.6526,-1.7936 c 0,-2.75 0.5625,-5 1.25,-5 0.6875,0 1.25,2.25 1.25,5 0,2.75 -0.5625,5 -1.25,5 -0.6875,0 -1.25,-2.25 -1.25,-5 z m 18.9937,1.875 c -0.026,-2.0625 0.2338,-3.05758 0.5762,-2.21129 0.3424,0.84629 0.3633,2.53379 0.046,3.75 -0.3169,1.21621 -0.597,0.52379 -0.6225,-1.53871 z m 15.1436,-3.75 c -0.01,-4.125 0.2206,-5.9632 0.5059,-4.08489 0.2852,1.87832 0.2909,5.25332 0.013,7.5 -0.2782,2.24669 -0.5115,0.70989 -0.5186,-3.41511 z m 8.75,0 c -0.01,-4.125 0.2206,-5.9632 0.5059,-4.08489 0.2852,1.87832 0.2909,5.25332 0.013,7.5 -0.2782,2.24669 -0.5115,0.70989 -0.5186,-3.41511 z m 3.3627,5.625 c 0,-0.6875 1.125,-1.25 2.5,-1.25 1.375,0 2.5,0.5625 2.5,1.25 0,0.6875 -1.125,1.25 -2.5,1.25 -1.375,0 -2.5,-0.5625 -2.5,-1.25 z m 12.6042,-1.14583 c -1.4323,-1.4323 -2.6042,-3.64199 -2.6042,-4.91043 0,-2.39005 4.5217,-7.33869 5.6629,-6.19754 0.3561,0.35615 -0.2098,1.35908 -1.2577,2.22873 -2.5704,2.13322 -2.4132,7.11657 0.2719,8.6192 1.1974,0.6701 1.8068,1.58868 1.3542,2.04128 -0.4527,0.45261 -1.9948,-0.34895 -3.4271,-1.78124 z m 14.8958,-4.47917 c 0,-3.78125 0.5625,-6.875 1.25,-6.875 0.6875,0 1.25,3.09375 1.25,6.875 0,3.78125 -0.5625,6.875 -1.25,6.875 -0.6875,0 -1.25,-3.09375 -1.25,-6.875 z m 6.3013,3.19697 c -1.4969,-2.10208 -2.2614,-3.80429 -1.6989,-3.78269 1.371,0.0527 5.8071,6.21793 5.0318,6.99318 -0.3363,0.33631 -1.8361,-1.10841 -3.3329,-3.21049 z m 12.2076,1.49053 c -2.8587,-3.32869 -3.7842,-5.3125 -2.4785,-5.3125 0.6479,0 1.4722,1.125 1.8318,2.5 0.909,3.476 6.2853,3.28496 8.7948,-0.3125 1.5892,-2.27828 1.9743,-2.41046 2.0274,-0.69588 0.067,2.15718 -4.3519,6.00838 -6.8938,6.00838 -0.7717,0 -2.2485,-0.98438 -3.2817,-2.1875 z m 16.8784,-4.6875 c -0.01,-4.125 0.2206,-5.9632 0.5059,-4.08489 0.2852,1.87832 0.2909,5.25332 0.013,7.5 -0.2782,2.24669 -0.5115,0.70989 -0.5186,-3.41511 z m 14.8908,4.92912 c -1.5279,-1.07023 -2.74,-2.89836 -2.6935,-4.0625 0.064,-1.6098 0.4094,-1.44318 1.441,0.69588 1.7589,3.64696 6.4856,3.66495 9.0285,0.0344 1.5373,-2.19473 1.9459,-2.34086 1.9459,-0.69587 0,1.82476 -4.3409,5.97401 -6.25,5.97401 -0.3815,0 -1.9439,-0.87565 -3.4719,-1.94588 z m -114.0281,-5.30044 c 0,-3.57702 0.5625,-6.50368 1.25,-6.50368 0.6875,0 1.25,1.79274 1.25,3.98386 l 0,3.98387 3.75,-3.59273 c 2.0625,-1.976 3.75,-3.03915 3.75,-2.36255 0,0.6766 -2.25,3.42725 -5,6.11255 l -5,4.88237 0,-6.50369 z m 17.8125,0.16847 c -0.8594,-0.34677 -1.4859,-2.13048 -1.3923,-3.96382 0.1504,-2.94546 0.2333,-3.00607 0.712,-0.52083 0.2979,1.54687 1.3463,2.8125 2.3297,2.8125 0.9835,0 1.7881,0.5625 1.7881,1.25 0,1.32988 -0.9107,1.44172 -3.4375,0.42215 z m 18.4375,-0.42215 c 0,-0.6875 1.125,-1.25 2.5,-1.25 1.375,0 2.5,0.5625 2.5,1.25 0,0.6875 -1.125,1.25 -2.5,1.25 -1.375,0 -2.5,-0.5625 -2.5,-1.25 z m 43.7098,-3.07659 c 0.8338,-1.00463 2.5159,-2.14395 3.738,-2.53184 2.8612,-0.90811 8.8022,1.33777 8.8022,3.32749 0,1.19073 -0.3333,1.19761 -1.5,0.0309 -1.8171,-1.81713 -8.0509,-1.98792 -9.125,-0.25 -0.4249,0.6875 -1.3707,1.25 -2.1018,1.25 -0.8539,0 -0.7872,-0.65325 0.1866,-1.82659 z m 31.2902,0.79979 c 0,-2.71268 5.8537,-4.55505 9.375,-2.95064 1.7188,0.78311 3.125,2.1109 3.125,2.95064 0,1.18751 -0.3333,1.19347 -1.5,0.0268 -0.825,-0.825 -2.9625,-1.5 -4.75,-1.5 -1.7875,0 -3.925,0.675 -4.75,1.5 -1.1667,1.16667 -1.5,1.16071 -1.5,-0.0268 z m -132.5,-1.24637 c 0,-1.5107 2.3715,-3.272 3.2384,-2.40513 0.3146,0.31463 -0.2853,1.28358 -1.3332,2.15323 -1.188,0.98594 -1.9052,1.08076 -1.9052,0.2519 z m 92.5,-0.85183 c 0.8559,-1.03125 1.7508,-1.875 1.9888,-1.875 0.238,0 0.109,0.84375 -0.2868,1.875 -0.3957,1.03125 -1.2907,1.875 -1.9888,1.875 -0.7316,0 -0.6101,-0.79426 0.2868,-1.875 z m -130,-0.625 c 0,-0.6875 1.6875,-1.25 3.75,-1.25 2.0625,0 3.75,0.5625 3.75,1.25 0,0.6875 -1.6875,1.25 -3.75,1.25 -2.0625,0 -3.75,-0.5625 -3.75,-1.25 z m 46.25,0 c 0,-0.6875 1.6875,-1.25 3.75,-1.25 2.0625,0 3.75,0.5625 3.75,1.25 0,0.6875 -1.6875,1.25 -3.75,1.25 -2.0625,0 -3.75,-0.5625 -3.75,-1.25 z m 48.75,0 c 0,-0.6875 1.125,-1.25 2.5,-1.25 1.375,0 2.5,0.5625 2.5,1.25 0,0.6875 -1.125,1.25 -2.5,1.25 -1.375,0 -2.5,-0.5625 -2.5,-1.25 z m 66.25,0 c 0,-0.6875 0.8438,-1.25 1.875,-1.25 1.0313,0 1.875,0.5625 1.875,1.25 0,0.6875 -0.8437,1.25 -1.875,1.25 -1.0312,0 -1.875,-0.5625 -1.875,-1.25 z m -159.6127,-16.875 c -0.01,-4.125 0.2206,-5.9632 0.5059,-4.08489 0.2852,1.87832 0.2909,5.25332 0.013,7.5 -0.2782,2.24669 -0.5115,0.70989 -0.5186,-3.41511 z m 5.4601,3.6686 c -1.2527,-1.72031 -2.0965,-3.64878 -1.875,-4.28548 0.2214,-0.6367 1.6734,0.7885 3.2266,3.16712 3.2225,4.93514 2.1025,5.86188 -1.3516,1.11836 z m 9.1526,2.64022 c 0,-1.62335 3.0503,-6.93382 3.9827,-6.93382 0.5948,0 0.2089,1.6875 -0.8577,3.75 -1.7298,3.34501 -3.125,4.7665 -3.125,3.18382 z m 9.0625,-1.22959 c -2.8993,-1.33709 -3.793,-3.20423 -1.5337,-3.20423 0.7034,0 0.3574,-1.40625 -0.7687,-3.125 -1.1262,-1.71875 -1.5611,-3.12036 -0.9664,-3.11469 0.9872,0.009 7.1383,10.16488 6.4004,10.56703 -0.1755,0.0957 -1.5847,-0.40973 -3.1316,-1.12311 z m 9.9312,-1.32923 c -0.026,-2.0625 0.2338,-3.05758 0.5762,-2.21129 0.3424,0.84629 0.3633,2.53379 0.046,3.75 -0.3169,1.21621 -0.597,0.52379 -0.6225,-1.53871 z m 11.0063,-1.44374 c 0,-4.51791 -0.028,-4.54308 -2.5474,-2.26334 -2.4932,2.25627 -2.6197,2.22786 -5.9375,-1.33351 l -3.3901,-3.6389 3.5423,3.08974 3.5424,3.08975 3.0201,-3.50721 3.0202,-3.5072 0,6.3197 c 0,3.47584 -0.2812,6.31971 -0.625,6.31971 -0.3437,0 -0.625,-2.05593 -0.625,-4.56874 z m 11.25,3.8004 c 0,-1.41144 6.6467,-13.00164 7.1611,-12.48721 0.595,0.59502 -5.6678,13.25555 -6.5572,13.25555 -0.3321,0 -0.6039,-0.34575 -0.6039,-0.76834 z m 21.6373,-6.10666 c -0.01,-4.125 0.2206,-5.9632 0.5059,-4.08489 0.2852,1.87832 0.2909,5.25332 0.013,7.5 -0.2782,2.24669 -0.5115,0.70989 -0.5186,-3.41511 z m 13.3627,5.76348 c 0,-0.61134 1.1528,-2.43946 2.5618,-4.0625 l 2.5619,-2.95098 -1.969,4.0625 c -1.9374,3.99756 -3.1547,5.13622 -3.1547,2.95098 z m 8.75,-3.88848 c -1.4709,-2.88325 -2.3932,-5.52351 -2.0494,-5.86726 0.3437,-0.34375 1.8285,1.73401 3.2994,4.61726 1.4709,2.88324 2.3932,5.52351 2.0494,5.86726 -0.3437,0.34375 -1.8285,-1.73402 -3.2994,-4.61726 z m 10.0573,2.39294 c 0.7674,-1.43388 1.6442,-2.35814 1.9484,-2.05391 0.8749,0.87487 -0.8987,4.66097 -2.1834,4.66097 -0.6386,0 -0.5329,-1.17227 0.235,-2.60706 z m 6.1927,-4.26794 c 0,-3.78125 0.5625,-6.875 1.25,-6.875 0.6875,0 1.25,3.09375 1.25,6.875 0,3.78125 -0.5625,6.875 -1.25,6.875 -0.6875,0 -1.25,-3.09375 -1.25,-6.875 z m 10.1863,3.14037 c 1.5186,-2.05404 2.9866,-3.5091 3.2623,-3.23345 0.7656,0.76557 -3.5781,6.96808 -4.8798,6.96808 -0.629,0 0.099,-1.68058 1.6175,-3.73463 z m 6.451,-3.14037 c -0.01,-4.125 0.2206,-5.9632 0.5059,-4.08489 0.2852,1.87832 0.2909,5.25332 0.013,7.5 -0.2782,2.24669 -0.5115,0.70989 -0.5186,-3.41511 z m 5.1683,3.81944 c -1.1793,-1.79985 -1.863,-3.55371 -1.5192,-3.89746 0.3437,-0.34375 1.5899,0.84761 2.7692,2.64746 1.1793,1.79986 1.8629,3.55372 1.5192,3.89747 -0.3438,0.34375 -1.5899,-0.84761 -2.7692,-2.64747 z m 11.2897,-0.38194 c 1.9374,-3.99756 3.1547,-5.13622 3.1547,-2.95098 0,0.61134 -1.1528,2.43946 -2.5618,4.0625 l -2.5619,2.95098 1.969,-4.0625 z m 7.1066,1.49491 c -1.7921,-0.93386 -2.3953,-1.84935 -1.5591,-2.36616 0.9374,-0.57937 0.972,-1.57533 0.1106,-3.18493 -0.6893,-1.28808 -1.2271,-3.08207 -1.1951,-3.98664 0.032,-0.90458 1.477,1.08221 3.2111,4.41507 1.734,3.33286 2.9735,6.19162 2.7543,6.3528 -0.2193,0.16117 -1.714,-0.39239 -3.3217,-1.23014 z m 33.7918,-1.18241 c -0.026,-2.0625 0.2338,-3.05758 0.5762,-2.21129 0.3424,0.84629 0.3633,2.53379 0.046,3.75 -0.317,1.21621 -0.5971,0.52379 -0.6226,-1.53871 z m -118.7645,0.35417 c -2.06,-2.05999 -1.8473,-6.6176 0.3958,-8.47917 2.2411,-1.85992 2.5349,0.0901 0.3438,2.2812 -1.2083,1.20826 -1.19,2.07755 0.087,4.12172 1.8625,2.98231 1.355,4.25751 -0.8262,2.07625 z m 9.7708,0.2316 c 0,-0.66592 0.5625,-1.21077 1.25,-1.21077 0.6875,0 1.25,-1.40625 1.25,-3.125 0,-1.71875 -0.5625,-3.125 -1.25,-3.125 -0.6875,0 -1.25,-0.54485 -1.25,-1.21077 0,-1.82037 3.4466,-0.13297 4.3067,2.10851 0.4125,1.07495 0.4346,2.94825 0.049,4.16288 -0.7605,2.39602 -4.3558,4.37713 -4.3558,2.40015 z m 100,-4.70709 c 0,-3.57702 0.5625,-6.50368 1.25,-6.50368 0.6875,0 1.25,1.79274 1.25,3.98386 l 0,3.98387 3.75,-3.59273 c 2.0625,-1.976 3.75,-3.03915 3.75,-2.36255 0,0.6766 -2.25,3.42725 -5,6.11255 l -5,4.88237 0,-6.50369 z m -70.4167,0.16299 c -1.2981,-1.29816 -0.9798,-5.17859 0.4999,-6.09307 2.109,-1.30343 3.1761,0.66875 1.1306,2.08953 -1.3915,0.96648 -1.4587,1.43144 -0.2763,1.9112 0.8594,0.3487 1.5625,1.14963 1.5625,1.77984 0,1.33518 -1.7107,1.51847 -2.9167,0.3125 z m -56.8921,-3.6213 c -0.8341,-1.83046 -0.923,-2.87263 -0.2074,-2.43039 1.8346,1.13382 4.0399,5.63502 2.7608,5.63502 -0.6013,0 -1.7504,-1.44209 -2.5534,-3.20463 z m -47.6912,-0.31854 c 0,-1.5107 2.3715,-3.272 3.2384,-2.40513 0.3146,0.31463 -0.2853,1.28358 -1.3332,2.15323 -1.188,0.98594 -1.9052,1.08076 -1.9052,0.2519 z m 119.5833,0.18984 c -0.4583,-0.45834 -0.8333,-1.41459 -0.8333,-2.125 0,-0.78326 0.5822,-0.70946 1.4792,0.1875 0.8135,0.81354 1.1885,1.76979 0.8333,2.125 -0.3552,0.3552 -1.0208,0.27083 -1.4792,-0.1875 z m 12.9167,-0.3429 c 0,-0.64693 0.5561,-1.51989 1.2357,-1.93992 0.7086,-0.43793 0.9181,0.0638 0.4913,1.17623 -0.831,2.16552 -1.727,2.56173 -1.727,0.76369 z m -137.5,-20.91666 0,-9.5929 3.125,2.93579 c 2.5746,2.41875 3.125,4.10819 3.125,9.59289 0,6.26758 -0.1829,6.65711 -3.125,6.65711 -3.0619,0 -3.125,-0.19381 -3.125,-9.59289 z m 25,0.11285 0,-9.48004 -4.945,3.9165 -4.945,3.9165 -7.4442,-6.62396 c -5.6374,-5.01632 -7.471,-7.48374 -7.555,-10.1665 l -0.1108,-3.54253 4.6875,3.71732 c 2.5781,2.04452 5.7591,4.90429 7.0687,6.35503 3.1883,3.53163 4.6122,3.33643 8.9474,-1.2265 2.0193,-2.12532 5.2183,-4.97612 7.1089,-6.33512 l 3.4375,-2.4709 0,15.71012 0,15.71012 -3.125,0 c -3.0586,0 -3.125,-0.20133 -3.125,-9.48004 z m 22.611,-0.20746 c 2.9073,-5.32813 5.4324,-9.8763 5.6112,-10.10706 0.1789,-0.23076 0.9471,0.74238 1.7071,2.16252 1.1288,2.10917 0.6862,3.96025 -2.4167,10.10705 -3.153,6.24612 -4.3415,7.52499 -6.9932,7.52499 l -3.1945,0 5.2861,-9.6875 z m 20.514,7.1875 c -0.6163,-1.94168 -1.8913,-2.5 -5.7092,-2.5 -5.4936,0 -6.1161,-1.29965 -2.4018,-5.01397 l 2.514,-2.51398 -3.2546,-6.42263 c -2.7308,-5.38894 -3.0273,-6.92156 -1.8422,-9.52256 0.7768,-1.70496 1.6085,-2.88661 1.8482,-2.62589 0.2397,0.26072 3.8792,7.36465 8.0879,15.78653 7.484,14.97637 7.585,15.3125 4.6016,15.3125 -1.9526,0 -3.336,-0.89974 -3.8439,-2.5 z m 18.125,-13.75 0,-16.25 3.125,0 3.125,0 0,16.25 0,16.25 -3.125,0 -3.125,0 0,-16.25 z m 31.361,6.5625 c 2.9073,-5.32813 5.4324,-9.8763 5.6112,-10.10706 0.1789,-0.23076 0.9471,0.74238 1.7071,2.16252 1.1288,2.10917 0.6862,3.96025 -2.4167,10.10705 -3.153,6.24612 -4.3415,7.52499 -6.9932,7.52499 l -3.1945,0 5.2861,-9.6875 z m 20.514,7.1875 c -0.6163,-1.94168 -1.8913,-2.5 -5.7092,-2.5 -5.4936,0 -6.1161,-1.29965 -2.4018,-5.01397 l 2.514,-2.51398 -3.2546,-6.42263 c -2.7308,-5.38894 -3.0273,-6.92156 -1.8422,-9.52256 0.7768,-1.70496 1.6085,-2.88661 1.8482,-2.62589 0.2397,0.26072 3.8793,7.36465 8.0879,15.78653 7.484,14.97637 7.585,15.3125 4.6016,15.3125 -1.9526,0 -3.336,-0.89974 -3.8439,-2.5 z m 22.1693,1.20432 c -1.5568,-0.62547 -3.385,-2.59518 -4.0625,-4.37714 -1.6562,-4.35623 -1.6689,-4.32718 1.8932,-4.32718 1.9445,0 3.125,0.70833 3.125,1.875 0,1.03125 0.8438,1.875 1.875,1.875 1.1667,0 1.875,1.18055 1.875,3.125 0,3.38448 -0.4242,3.54939 -4.7057,1.82932 z m 9.7057,-1.73482 c 0,-1.62361 0.8832,-3.29095 1.9627,-3.70518 3.376,-1.2955 1.6882,-6.32881 -2.2752,-6.78485 -2.7,-0.31066 -3.4375,-1.0482 -3.4375,-3.4375 0,-2.41144 0.6478,-3.04197 3.125,-3.04197 2.5,0 3.125,-0.625 3.125,-3.125 0,-1.71875 -0.5625,-3.125 -1.25,-3.125 -0.6875,0 -1.25,-1.3886 -1.25,-3.08577 0,-2.39518 0.4896,-2.91558 2.1875,-2.32533 4.8669,1.69187 7.1793,9.29435 3.842,12.63156 -1.1272,1.12729 -0.9814,2.01085 0.625,3.78593 4.2608,4.70808 1.9633,12.10897 -4.467,14.38938 -1.6848,0.5975 -2.1875,0.0974 -2.1875,-2.17627 z m 40,-3.65077 c 0,-5.09377 0.594,-7.21883 2.5,-8.94373 2.4779,-2.24244 2.5,-2.18329 2.5,6.68127 0,8.1104 -0.2329,8.94373 -2.5,8.94373 -2.1882,0 -2.5,-0.83333 -2.5,-6.68127 z m 18.75,-9.56873 0,-16.25 3.125,0 3.125,0 0,16.25 0,16.25 -3.125,0 -3.125,0 0,-16.25 z m 21.25,0 c 0,-15.41667 0.1282,-16.25 2.5,-16.25 2.3718,0 2.5,0.83333 2.5,16.25 0,15.41667 -0.1282,16.25 -2.5,16.25 -2.3718,0 -2.5,-0.83333 -2.5,-16.25 z m -58.75,-0.33719 0,-15.91281 3.125,0 c 3.0449,0 3.125,0.2314 3.125,9.02898 l 0,9.02897 8.75,-8.68295 c 8.6169,-8.55083 8.75,-8.62603 8.75,-4.94179 0,3.06248 -2.1542,5.88645 -11.875,15.56679 l -11.875,11.82562 0,-15.91281 z m 47.5,0.96219 c 0,-2.63889 0.5833,-3.125 3.75,-3.125 3.1667,0 3.75,0.48611 3.75,3.125 0,2.63889 -0.5833,3.125 -3.75,3.125 -3.1667,0 -3.75,-0.48611 -3.75,-3.125 z m -82.5,-8.80682 c 0,-2.17504 5.4366,-8.06818 7.4432,-8.06818 2.2173,0 1.4436,4.86322 -1.1932,7.5 -2.9748,2.97484 -6.25,3.27259 -6.25,0.56818 z m -60,-4.94318 c 0,-2.7381 0.5417,-3.125 4.375,-3.125 3.8333,0 4.375,0.3869 4.375,3.125 0,2.7381 -0.5417,3.125 -4.375,3.125 -3.8333,0 -4.375,-0.3869 -4.375,-3.125 z"
         style="fill:#000000" />
    </g>
  </g>
</svg>
